G04 Layer: BottomPasteMaskLayer*
G04 EasyEDA v6.4.5, 2020-08-30T10:48:13+03:00*
G04 413a31d708cc4da382682e4194c4ac02,19ad15c176e44a5d96a851d9d78d95a1,10*
G04 Gerber Generator version 0.2*
G04 Scale: 100 percent, Rotated: No, Reflected: No *
G04 Dimensions in millimeters *
G04 leading zeros omitted , absolute positions ,3 integer and 3 decimal *
%FSLAX33Y33*%
%MOMM*%
G90*
G71D02*

%ADD27C,0.599999*%
%ADD30C,0.799998*%

%LPD*%
G54D27*
G01X22690Y27399D02*
G01X22690Y28599D01*
G01X23960Y27399D02*
G01X23960Y28599D01*
G01X25230Y27399D02*
G01X25230Y28599D01*
G01X26500Y27399D02*
G01X26500Y28599D01*
G01X27770Y27399D02*
G01X27770Y28599D01*
G01X29040Y27399D02*
G01X29040Y28599D01*
G01X30310Y27399D02*
G01X30310Y28599D01*
G01X22690Y21400D02*
G01X22690Y22600D01*
G01X23960Y21400D02*
G01X23960Y22600D01*
G01X25230Y21400D02*
G01X25230Y22600D01*
G01X26500Y21400D02*
G01X26500Y22600D01*
G01X27770Y21400D02*
G01X27770Y22600D01*
G01X29040Y21400D02*
G01X29040Y22600D01*
G01X30310Y21400D02*
G01X30310Y22600D01*
G54D30*
G01X1999Y22799D02*
G01X1999Y21599D01*
G01X4539Y22799D02*
G01X4539Y21599D01*
G01X4542Y16792D02*
G01X4542Y15592D01*
G01X1999Y16800D02*
G01X1999Y15600D01*
G01X31399Y14000D02*
G01X32599Y14000D01*
G01X31399Y16540D02*
G01X32599Y16540D01*
G01X37407Y16542D02*
G01X38607Y16542D01*
G01X37399Y14000D02*
G01X38599Y14000D01*
G01X65000Y18899D02*
G01X65000Y17699D01*
G01X67540Y18899D02*
G01X67540Y17699D01*
G01X67542Y12892D02*
G01X67542Y11692D01*
G01X65000Y12900D02*
G01X65000Y11700D01*
G36*
G01X7574Y6100D02*
G01X8924Y6100D01*
G01X8924Y8100D01*
G01X7574Y8100D01*
G01X7574Y6100D01*
G37*
G36*
G01X12074Y6100D02*
G01X13424Y6100D01*
G01X13424Y8100D01*
G01X12074Y8100D01*
G01X12074Y6100D01*
G37*
G36*
G01X59275Y15829D02*
G01X59275Y16829D01*
G01X58175Y16829D01*
G01X58175Y15829D01*
G01X59275Y15829D01*
G37*
G36*
G01X59275Y14229D02*
G01X59275Y15229D01*
G01X58175Y15229D01*
G01X58175Y14229D01*
G01X59275Y14229D01*
G37*
G36*
G01X57299Y11900D02*
G01X58299Y11900D01*
G01X58299Y13000D01*
G01X57299Y13000D01*
G01X57299Y11900D01*
G37*
G36*
G01X55699Y11900D02*
G01X56699Y11900D01*
G01X56699Y13000D01*
G01X55699Y13000D01*
G01X55699Y11900D01*
G37*
G36*
G01X21925Y33774D02*
G01X21925Y32774D01*
G01X23025Y32774D01*
G01X23025Y33774D01*
G01X21925Y33774D01*
G37*
G36*
G01X21925Y35374D02*
G01X21925Y34374D01*
G01X23025Y34374D01*
G01X23025Y35374D01*
G01X21925Y35374D01*
G37*
G36*
G01X22249Y58648D02*
G01X22249Y57848D01*
G01X22749Y57848D01*
G01X22749Y58648D01*
G01X22249Y58648D01*
G37*
G36*
G01X23250Y58648D02*
G01X23250Y57848D01*
G01X23750Y57848D01*
G01X23750Y58648D01*
G01X23250Y58648D01*
G37*
G36*
G01X24251Y58648D02*
G01X24251Y57848D01*
G01X24750Y57848D01*
G01X24750Y58648D01*
G01X24251Y58648D01*
G37*
G36*
G01X24251Y55648D02*
G01X24251Y54848D01*
G01X24750Y54848D01*
G01X24750Y55648D01*
G01X24251Y55648D01*
G37*
G36*
G01X23250Y55648D02*
G01X23250Y54848D01*
G01X23750Y54848D01*
G01X23750Y55648D01*
G01X23250Y55648D01*
G37*
G36*
G01X22252Y55648D02*
G01X22252Y54848D01*
G01X22751Y54848D01*
G01X22751Y55648D01*
G01X22252Y55648D01*
G37*
G36*
G01X24800Y57551D02*
G01X22200Y57551D01*
G01X22200Y55951D01*
G01X24800Y55951D01*
G01X24800Y57551D01*
G37*
G36*
G01X14874Y24599D02*
G01X15574Y24599D01*
G01X15574Y25849D01*
G01X14874Y25849D01*
G01X14874Y24599D01*
G37*
G36*
G01X13924Y22100D02*
G01X14624Y22100D01*
G01X14624Y23350D01*
G01X13924Y23350D01*
G01X13924Y22100D01*
G37*
G36*
G01X15824Y22100D02*
G01X16524Y22100D01*
G01X16524Y23350D01*
G01X15824Y23350D01*
G01X15824Y22100D01*
G37*
G36*
G01X42500Y21950D02*
G01X42500Y18450D01*
G01X49500Y18450D01*
G01X49500Y21950D01*
G01X42500Y21950D01*
G37*
G36*
G01X42500Y16550D02*
G01X42500Y13050D01*
G01X49500Y13050D01*
G01X49500Y16550D01*
G01X42500Y16550D01*
G37*
G36*
G01X20225Y22250D02*
G01X20225Y21250D01*
G01X21325Y21250D01*
G01X21325Y22250D01*
G01X20225Y22250D01*
G37*
G36*
G01X20225Y23850D02*
G01X20225Y22850D01*
G01X21325Y22850D01*
G01X21325Y23850D01*
G01X20225Y23850D01*
G37*
G36*
G01X25049Y16849D02*
G01X25049Y15849D01*
G01X26149Y15849D01*
G01X26149Y16849D01*
G01X25049Y16849D01*
G37*
G36*
G01X25049Y18449D02*
G01X25049Y17449D01*
G01X26149Y17449D01*
G01X26149Y18449D01*
G01X25049Y18449D01*
G37*
G36*
G01X25048Y13101D02*
G01X25048Y12101D01*
G01X26148Y12101D01*
G01X26148Y13101D01*
G01X25048Y13101D01*
G37*
G36*
G01X25048Y14701D02*
G01X25048Y13701D01*
G01X26148Y13701D01*
G01X26148Y14701D01*
G01X25048Y14701D01*
G37*
G36*
G01X25048Y9349D02*
G01X25048Y8349D01*
G01X26148Y8349D01*
G01X26148Y9349D01*
G01X25048Y9349D01*
G37*
G36*
G01X25048Y10949D02*
G01X25048Y9949D01*
G01X26148Y9949D01*
G01X26148Y10949D01*
G01X25048Y10949D01*
G37*
G36*
G01X44574Y3850D02*
G01X44574Y4850D01*
G01X43023Y4850D01*
G01X43023Y3850D01*
G01X44574Y3850D01*
G37*
G36*
G01X44574Y1850D02*
G01X44574Y2850D01*
G01X43023Y2850D01*
G01X43023Y1850D01*
G01X44574Y1850D01*
G37*
G36*
G01X42001Y11415D02*
G01X41001Y11415D01*
G01X41001Y9865D01*
G01X42001Y9865D01*
G01X42001Y11415D01*
G37*
G36*
G01X44001Y11415D02*
G01X43001Y11415D01*
G01X43001Y9865D01*
G01X44001Y9865D01*
G01X44001Y11415D01*
G37*
G36*
G01X21924Y51025D02*
G01X21924Y50025D01*
G01X23024Y50025D01*
G01X23024Y51025D01*
G01X21924Y51025D01*
G37*
G36*
G01X21924Y52625D02*
G01X21924Y51625D01*
G01X23024Y51625D01*
G01X23024Y52625D01*
G01X21924Y52625D01*
G37*
G36*
G01X23974Y51025D02*
G01X23974Y50025D01*
G01X25074Y50025D01*
G01X25074Y51025D01*
G01X23974Y51025D01*
G37*
G36*
G01X23974Y52625D02*
G01X23974Y51625D01*
G01X25074Y51625D01*
G01X25074Y52625D01*
G01X23974Y52625D01*
G37*
G36*
G01X20174Y25900D02*
G01X20174Y24900D01*
G01X21274Y24900D01*
G01X21274Y25900D01*
G01X20174Y25900D01*
G37*
G36*
G01X20174Y27500D02*
G01X20174Y26500D01*
G01X21274Y26500D01*
G01X21274Y27500D01*
G01X20174Y27500D01*
G37*
G36*
G01X19250Y22850D02*
G01X19250Y23850D01*
G01X18150Y23850D01*
G01X18150Y22850D01*
G01X19250Y22850D01*
G37*
G36*
G01X19250Y21250D02*
G01X19250Y22250D01*
G01X18150Y22250D01*
G01X18150Y21250D01*
G01X19250Y21250D01*
G37*
G36*
G01X66050Y22201D02*
G01X65050Y22201D01*
G01X65050Y21100D01*
G01X66050Y21100D01*
G01X66050Y22201D01*
G37*
G36*
G01X67650Y22201D02*
G01X66650Y22201D01*
G01X66650Y21100D01*
G01X67650Y21100D01*
G01X67650Y22201D01*
G37*
G36*
G01X66050Y9351D02*
G01X65050Y9351D01*
G01X65050Y8251D01*
G01X66050Y8251D01*
G01X66050Y9351D01*
G37*
G36*
G01X67650Y9351D02*
G01X66650Y9351D01*
G01X66650Y8251D01*
G01X67650Y8251D01*
G01X67650Y9351D01*
G37*
G36*
G01X35424Y2850D02*
G01X35424Y1850D01*
G01X36974Y1850D01*
G01X36974Y2850D01*
G01X35424Y2850D01*
G37*
G36*
G01X35424Y4850D02*
G01X35424Y3850D01*
G01X36974Y3850D01*
G01X36974Y4850D01*
G01X35424Y4850D01*
G37*
G36*
G01X33199Y26150D02*
G01X33199Y27150D01*
G01X32099Y27150D01*
G01X32099Y26150D01*
G01X33199Y26150D01*
G37*
G36*
G01X33199Y27950D02*
G01X33199Y28950D01*
G01X32099Y28950D01*
G01X32099Y27950D01*
G01X33199Y27950D01*
G37*
G36*
G01X29949Y5600D02*
G01X31199Y5600D01*
G01X31199Y7600D01*
G01X29949Y7600D01*
G01X29949Y5600D01*
G37*
G36*
G01X33699Y5600D02*
G01X34949Y5600D01*
G01X34949Y7600D01*
G01X33699Y7600D01*
G01X33699Y5600D01*
G37*
G36*
G01X58749Y23203D02*
G01X58749Y25002D01*
G01X56149Y25002D01*
G01X56149Y23203D01*
G01X58749Y23203D01*
G37*
G36*
G01X58749Y26205D02*
G01X58749Y28005D01*
G01X56149Y28005D01*
G01X56149Y26205D01*
G01X58749Y26205D01*
G37*
G36*
G01X33199Y24200D02*
G01X33199Y25200D01*
G01X32099Y25200D01*
G01X32099Y24200D01*
G01X33199Y24200D01*
G37*
G36*
G01X33199Y22600D02*
G01X33199Y23600D01*
G01X32099Y23600D01*
G01X32099Y22600D01*
G01X33199Y22600D01*
G37*
G36*
G01X54590Y8090D02*
G01X54590Y6489D01*
G01X57589Y6489D01*
G01X57589Y8090D01*
G01X54590Y8090D01*
G37*
G36*
G01X54590Y3510D02*
G01X54590Y1909D01*
G01X57589Y1909D01*
G01X57589Y3510D01*
G01X54590Y3510D01*
G37*
G36*
G01X45809Y7925D02*
G01X45809Y2125D01*
G01X52010Y2125D01*
G01X52010Y7925D01*
G01X45809Y7925D01*
G37*
G36*
G01X12499Y17425D02*
G01X12499Y16425D01*
G01X13499Y16425D01*
G01X13499Y17425D01*
G01X12499Y17425D01*
G37*
G36*
G01X12499Y15025D02*
G01X12499Y14025D01*
G01X13499Y14025D01*
G01X13499Y15025D01*
G01X12499Y15025D01*
G37*
G36*
G01X14549Y17425D02*
G01X14549Y16425D01*
G01X15549Y16425D01*
G01X15549Y17425D01*
G01X14549Y17425D01*
G37*
G36*
G01X14549Y15025D02*
G01X14549Y14025D01*
G01X15549Y14025D01*
G01X15549Y15025D01*
G01X14549Y15025D01*
G37*
G36*
G01X32920Y4899D02*
G01X32920Y3899D01*
G01X33920Y3899D01*
G01X33920Y4899D01*
G01X32920Y4899D01*
G37*
G36*
G01X32920Y2499D02*
G01X32920Y1499D01*
G01X33920Y1499D01*
G01X33920Y2499D01*
G01X32920Y2499D01*
G37*
G36*
G01X30910Y4899D02*
G01X30910Y3899D01*
G01X31910Y3899D01*
G01X31910Y4899D01*
G01X30910Y4899D01*
G37*
G36*
G01X30910Y2499D02*
G01X30910Y1499D01*
G01X31910Y1499D01*
G01X31910Y2499D01*
G01X30910Y2499D01*
G37*
G36*
G01X28900Y4899D02*
G01X28900Y3899D01*
G01X29900Y3899D01*
G01X29900Y4899D01*
G01X28900Y4899D01*
G37*
G36*
G01X28900Y2499D02*
G01X28900Y1499D01*
G01X29900Y1499D01*
G01X29900Y2499D01*
G01X28900Y2499D01*
G37*
G36*
G01X4980Y8060D02*
G01X3980Y8060D01*
G01X3980Y7060D01*
G01X4980Y7060D01*
G01X4980Y8060D01*
G37*
G36*
G01X2580Y8060D02*
G01X1580Y8060D01*
G01X1580Y7060D01*
G01X2580Y7060D01*
G01X2580Y8060D01*
G37*
G36*
G01X4980Y10060D02*
G01X3980Y10060D01*
G01X3980Y9060D01*
G01X4980Y9060D01*
G01X4980Y10060D01*
G37*
G36*
G01X2580Y10060D02*
G01X1580Y10060D01*
G01X1580Y9060D01*
G01X2580Y9060D01*
G01X2580Y10060D01*
G37*
G36*
G01X4980Y12060D02*
G01X3980Y12060D01*
G01X3980Y11060D01*
G01X4980Y11060D01*
G01X4980Y12060D01*
G37*
G36*
G01X2580Y12060D02*
G01X1580Y12060D01*
G01X1580Y11060D01*
G01X2580Y11060D01*
G01X2580Y12060D01*
G37*
G36*
G01X4980Y14060D02*
G01X3980Y14060D01*
G01X3980Y13060D01*
G01X4980Y13060D01*
G01X4980Y14060D01*
G37*
G36*
G01X2580Y14060D02*
G01X1580Y14060D01*
G01X1580Y13060D01*
G01X2580Y13060D01*
G01X2580Y14060D01*
G37*
G36*
G01X10499Y17425D02*
G01X10499Y16425D01*
G01X11499Y16425D01*
G01X11499Y17425D01*
G01X10499Y17425D01*
G37*
G36*
G01X10499Y15025D02*
G01X10499Y14025D01*
G01X11499Y14025D01*
G01X11499Y15025D01*
G01X10499Y15025D01*
G37*
G36*
G01X47514Y24292D02*
G01X47514Y26292D01*
G01X47064Y26292D01*
G01X47064Y24292D01*
G01X47514Y24292D01*
G37*
G36*
G01X46864Y24292D02*
G01X46864Y26292D01*
G01X46414Y26292D01*
G01X46414Y24292D01*
G01X46864Y24292D01*
G37*
G36*
G01X46214Y24292D02*
G01X46214Y26292D01*
G01X45764Y26292D01*
G01X45764Y24292D01*
G01X46214Y24292D01*
G37*
G36*
G01X45564Y24292D02*
G01X45564Y26292D01*
G01X45114Y26292D01*
G01X45114Y24292D01*
G01X45564Y24292D01*
G37*
G36*
G01X44914Y24292D02*
G01X44914Y26292D01*
G01X44464Y26292D01*
G01X44464Y24292D01*
G01X44914Y24292D01*
G37*
G36*
G01X54399Y23203D02*
G01X54399Y25002D01*
G01X51799Y25002D01*
G01X51799Y23203D01*
G01X54399Y23203D01*
G37*
G36*
G01X54399Y26205D02*
G01X54399Y28005D01*
G01X51799Y28005D01*
G01X51799Y26205D01*
G01X54399Y26205D01*
G37*
G36*
G01X59949Y4324D02*
G01X60649Y4324D01*
G01X60649Y5574D01*
G01X59949Y5574D01*
G01X59949Y4324D01*
G37*
G36*
G01X58999Y1825D02*
G01X59699Y1825D01*
G01X59699Y3075D01*
G01X58999Y3075D01*
G01X58999Y1825D01*
G37*
G36*
G01X60899Y1825D02*
G01X61599Y1825D01*
G01X61599Y3075D01*
G01X60899Y3075D01*
G01X60899Y1825D01*
G37*
G36*
G01X41600Y6554D02*
G01X41600Y8054D01*
G01X38600Y8054D01*
G01X38600Y6554D01*
G01X41600Y6554D01*
G37*
G36*
G01X41600Y1945D02*
G01X41600Y3445D01*
G01X38600Y3445D01*
G01X38600Y1945D01*
G01X41600Y1945D01*
G37*
G36*
G01X60399Y26399D02*
G01X60399Y25399D01*
G01X61499Y25399D01*
G01X61499Y26399D01*
G01X60399Y26399D01*
G37*
G36*
G01X60399Y24599D02*
G01X60399Y23599D01*
G01X61499Y23599D01*
G01X61499Y24599D01*
G01X60399Y24599D01*
G37*
G36*
G01X61999Y7800D02*
G01X60999Y7800D01*
G01X60999Y6800D01*
G01X61999Y6800D01*
G01X61999Y7800D01*
G37*
G36*
G01X59599Y7800D02*
G01X58599Y7800D01*
G01X58599Y6800D01*
G01X59599Y6800D01*
G01X59599Y7800D01*
G37*
G36*
G01X20875Y18550D02*
G01X20875Y19250D01*
G01X19625Y19250D01*
G01X19625Y18550D01*
G01X20875Y18550D01*
G37*
G36*
G01X23374Y17600D02*
G01X23374Y18300D01*
G01X22124Y18300D01*
G01X22124Y17600D01*
G01X23374Y17600D01*
G37*
G36*
G01X23374Y19499D02*
G01X23374Y20199D01*
G01X22124Y20199D01*
G01X22124Y19499D01*
G01X23374Y19499D01*
G37*
G36*
G01X20875Y11549D02*
G01X20875Y12250D01*
G01X19625Y12250D01*
G01X19625Y11549D01*
G01X20875Y11549D01*
G37*
G36*
G01X23374Y10600D02*
G01X23374Y11300D01*
G01X22124Y11300D01*
G01X22124Y10600D01*
G01X23374Y10600D01*
G37*
G36*
G01X23374Y12499D02*
G01X23374Y13199D01*
G01X22124Y13199D01*
G01X22124Y12499D01*
G01X23374Y12499D01*
G37*
G36*
G01X25949Y3974D02*
G01X26649Y3974D01*
G01X26649Y5224D01*
G01X25949Y5224D01*
G01X25949Y3974D01*
G37*
G36*
G01X25000Y1475D02*
G01X25700Y1475D01*
G01X25700Y2725D01*
G01X25000Y2725D01*
G01X25000Y1475D01*
G37*
G36*
G01X26899Y1475D02*
G01X27599Y1475D01*
G01X27599Y2725D01*
G01X26899Y2725D01*
G01X26899Y1475D01*
G37*
G36*
G01X20875Y15049D02*
G01X20875Y15750D01*
G01X19625Y15750D01*
G01X19625Y15049D01*
G01X20875Y15049D01*
G37*
G36*
G01X23374Y14100D02*
G01X23374Y14800D01*
G01X22124Y14800D01*
G01X22124Y14100D01*
G01X23374Y14100D01*
G37*
G36*
G01X23374Y15999D02*
G01X23374Y16699D01*
G01X22124Y16699D01*
G01X22124Y15999D01*
G01X23374Y15999D01*
G37*
G36*
G01X20875Y8049D02*
G01X20875Y8750D01*
G01X19625Y8750D01*
G01X19625Y8049D01*
G01X20875Y8049D01*
G37*
G36*
G01X23374Y7100D02*
G01X23374Y7800D01*
G01X22124Y7800D01*
G01X22124Y7100D01*
G01X23374Y7100D01*
G37*
G36*
G01X23374Y8999D02*
G01X23374Y9699D01*
G01X22124Y9699D01*
G01X22124Y8999D01*
G01X23374Y8999D01*
G37*
G36*
G01X22449Y3974D02*
G01X23149Y3974D01*
G01X23149Y5224D01*
G01X22449Y5224D01*
G01X22449Y3974D01*
G37*
G36*
G01X21500Y1475D02*
G01X22200Y1475D01*
G01X22200Y2725D01*
G01X21500Y2725D01*
G01X21500Y1475D01*
G37*
G36*
G01X23399Y1475D02*
G01X24099Y1475D01*
G01X24099Y2725D01*
G01X23399Y2725D01*
G01X23399Y1475D01*
G37*
G36*
G01X18948Y3974D02*
G01X19649Y3974D01*
G01X19649Y5224D01*
G01X18948Y5224D01*
G01X18948Y3974D01*
G37*
G36*
G01X17999Y1475D02*
G01X18699Y1475D01*
G01X18699Y2725D01*
G01X17999Y2725D01*
G01X17999Y1475D01*
G37*
G36*
G01X19898Y1475D02*
G01X20598Y1475D01*
G01X20598Y2725D01*
G01X19898Y2725D01*
G01X19898Y1475D01*
G37*
G36*
G01X15449Y3974D02*
G01X16150Y3974D01*
G01X16150Y5224D01*
G01X15449Y5224D01*
G01X15449Y3974D01*
G37*
G36*
G01X14500Y1475D02*
G01X15200Y1475D01*
G01X15200Y2725D01*
G01X14500Y2725D01*
G01X14500Y1475D01*
G37*
G36*
G01X16399Y1475D02*
G01X17099Y1475D01*
G01X17099Y2725D01*
G01X16399Y2725D01*
G01X16399Y1475D01*
G37*
G36*
G01X11949Y3974D02*
G01X12649Y3974D01*
G01X12649Y5224D01*
G01X11949Y5224D01*
G01X11949Y3974D01*
G37*
G36*
G01X11000Y1475D02*
G01X11700Y1475D01*
G01X11700Y2725D01*
G01X11000Y2725D01*
G01X11000Y1475D01*
G37*
G36*
G01X12899Y1475D02*
G01X13599Y1475D01*
G01X13599Y2725D01*
G01X12899Y2725D01*
G01X12899Y1475D01*
G37*
G36*
G01X8449Y3974D02*
G01X9149Y3974D01*
G01X9149Y5224D01*
G01X8449Y5224D01*
G01X8449Y3974D01*
G37*
G36*
G01X7500Y1475D02*
G01X8200Y1475D01*
G01X8200Y2725D01*
G01X7500Y2725D01*
G01X7500Y1475D01*
G37*
G36*
G01X9399Y1475D02*
G01X10099Y1475D01*
G01X10099Y2725D01*
G01X9399Y2725D01*
G01X9399Y1475D01*
G37*
G36*
G01X37399Y23203D02*
G01X37399Y25002D01*
G01X34799Y25002D01*
G01X34799Y23203D01*
G01X37399Y23203D01*
G37*
G36*
G01X37399Y26205D02*
G01X37399Y28005D01*
G01X34799Y28005D01*
G01X34799Y26205D01*
G01X37399Y26205D01*
G37*
G36*
G01X39049Y28949D02*
G01X39049Y27949D01*
G01X40149Y27949D01*
G01X40149Y28949D01*
G01X39049Y28949D01*
G37*
G36*
G01X39049Y27149D02*
G01X39049Y26149D01*
G01X40149Y26149D01*
G01X40149Y27149D01*
G01X39049Y27149D01*
G37*
G36*
G01X24899Y49099D02*
G01X23899Y49099D01*
G01X23899Y47999D01*
G01X24899Y47999D01*
G01X24899Y49099D01*
G37*
G36*
G01X23099Y49099D02*
G01X22099Y49099D01*
G01X22099Y47999D01*
G01X23099Y47999D01*
G01X23099Y49099D01*
G37*
G36*
G01X13799Y27549D02*
G01X14799Y27549D01*
G01X14799Y28650D01*
G01X13799Y28650D01*
G01X13799Y27549D01*
G37*
G36*
G01X15600Y27549D02*
G01X16600Y27549D01*
G01X16600Y28650D01*
G01X15600Y28650D01*
G01X15600Y27549D01*
G37*
G36*
G01X18149Y26599D02*
G01X18549Y26599D01*
G01X18549Y27499D01*
G01X18149Y27499D01*
G01X18149Y26599D01*
G37*
G36*
G01X18799Y26599D02*
G01X19199Y26599D01*
G01X19199Y27499D01*
G01X18799Y27499D01*
G01X18799Y26599D01*
G37*
G36*
G01X18799Y24800D02*
G01X19199Y24800D01*
G01X19199Y25700D01*
G01X18799Y25700D01*
G01X18799Y24800D01*
G37*
G36*
G01X18149Y24800D02*
G01X18549Y24800D01*
G01X18549Y25700D01*
G01X18149Y25700D01*
G01X18149Y24800D01*
G37*
G36*
G01X17499Y24800D02*
G01X17899Y24800D01*
G01X17899Y25700D01*
G01X17499Y25700D01*
G01X17499Y24800D01*
G37*
G36*
G01X17499Y26599D02*
G01X17899Y26599D01*
G01X17899Y27499D01*
G01X17499Y27499D01*
G01X17499Y26599D01*
G37*
G36*
G01X48228Y11400D02*
G01X49528Y11400D01*
G01X49528Y9900D01*
G01X48228Y9900D01*
G01X48228Y11400D01*
G37*
G36*
G01X44828Y11400D02*
G01X46128Y11400D01*
G01X46128Y9900D01*
G01X44828Y9900D01*
G01X44828Y11400D01*
G37*
G36*
G01X55539Y16144D02*
G01X56239Y16144D01*
G01X56239Y17394D01*
G01X55539Y17394D01*
G01X55539Y16144D01*
G37*
G36*
G01X54589Y13645D02*
G01X55289Y13645D01*
G01X55289Y14895D01*
G01X54589Y14895D01*
G01X54589Y13645D01*
G37*
G36*
G01X56489Y13645D02*
G01X57189Y13645D01*
G01X57189Y14895D01*
G01X56489Y14895D01*
G01X56489Y13645D01*
G37*
G36*
G01X25075Y32660D02*
G01X25075Y33660D01*
G01X23975Y33660D01*
G01X23975Y32660D01*
G01X25075Y32660D01*
G37*
G36*
G01X25075Y34460D02*
G01X25075Y35460D01*
G01X23975Y35460D01*
G01X23975Y34460D01*
G01X25075Y34460D01*
G37*
G36*
G01X10099Y22700D02*
G01X9099Y22700D01*
G01X9099Y21599D01*
G01X10099Y21599D01*
G01X10099Y22700D01*
G37*
G36*
G01X11699Y22700D02*
G01X10699Y22700D01*
G01X10699Y21599D01*
G01X11699Y21599D01*
G01X11699Y22700D01*
G37*
G36*
G01X39049Y23599D02*
G01X39049Y22599D01*
G01X40149Y22599D01*
G01X40149Y23599D01*
G01X39049Y23599D01*
G37*
G36*
G01X39049Y25199D02*
G01X39049Y24199D01*
G01X40149Y24199D01*
G01X40149Y25199D01*
G01X39049Y25199D01*
G37*
G36*
G01X52299Y19649D02*
G01X53299Y19649D01*
G01X53299Y20749D01*
G01X52299Y20749D01*
G01X52299Y19649D01*
G37*
G36*
G01X50699Y19649D02*
G01X51699Y19649D01*
G01X51699Y20749D01*
G01X50699Y20749D01*
G01X50699Y19649D01*
G37*
M00*
M02*
