;Layer: Drill PTH
;EasyEDA v6.4.5, 2020-08-30T10:48:13+03:00
;413a31d708cc4da382682e4194c4ac02,19ad15c176e44a5d96a851d9d78d95a1,10
;Gerber Generator version 0.2
M48
METRIC,LZ,000.000
;Holesize 1 = 0.305 METRIC
T01C0.305
;Holesize 2 = 0.306 METRIC
T02C0.306
;Holesize 3 = 0.600 METRIC
T03C0.600
;Holesize 4 = 3.000 METRIC
T04C3.000
%
G05
G90
T01
X+030720Y+015050
X+028359Y+015020
X+060244Y+015009
X+067149Y+010149
X+023960Y+024080
X+038239Y+015260
X+019720Y+013380
X+016804Y+013614
X+012495Y+027325
X+022094Y+032135
X+022100Y+030885
X+023500Y+035999
X+023500Y+031325
X+013100Y+028100
X+015225Y+026424
X+022035Y+025404
X+016169Y+021359
X+030299Y+023525
X+029199Y+006599
X+024599Y+029299
X+024400Y+047225
X+022599Y+047225
X+023500Y+053999
X+022500Y+053999
X+022499Y+059249
X+023500Y+059249
X+024649Y+023549
X+066219Y+018320
X+064009Y+012199
X+042720Y+008370
X+063649Y+019249
X+029049Y+023549
X+009279Y+012849
X+016869Y+012579
X+018450Y+011000
X+029199Y+010499
X+004549Y+018149
X+006050Y+022400
X+029049Y+020100
X+036199Y+006599
X+005690Y+006610
X+027249Y+003499
X+023809Y+007450
X+034359Y+012229
X+034419Y+010810
X+025230Y+026189
X+025929Y+020139
X+026189Y+026189
X+026800Y+020249
X+027949Y+005499
X+021850Y+004650
X+009720Y+004599
X+011249Y+004599
X+015800Y+005950
X+019299Y+006800
X+026299Y+029474
X+018349Y+028169
X+021450Y+028899
X+022049Y+026800
X+017174Y+023975
X+027100Y+025849
X+030249Y+025839
X+020749Y+024375
X+053459Y+015000
X+041649Y+013700
X+050399Y+015949
X+006875Y+007100
X+054049Y+016199
X+034899Y+015000
X+011999Y+018000
X+021949Y+020949
X+017179Y+021170
T02
X+035061Y+029140
X+037061Y+029140
X+045061Y+029140
X+047061Y+029140
X+049061Y+001141
X+051061Y+029140
X+051061Y+001141
X+053061Y+029140
X+053061Y+001141
X+055061Y+029140
X+057061Y+029140
X+059061Y+029140
X+061061Y+029140
X+063061Y+029140
X+063061Y+027140
X+063061Y+025140
X+063061Y+005141
X+063061Y+003141
X+063061Y+001141
X+065061Y+007141
X+067061Y+007141
X+069061Y+021140
X+069061Y+019140
X+069061Y+017140
X+069061Y+015140
X+069061Y+013140
X+069061Y+011140
X+069061Y+009141
X+069061Y+007141
X+045059Y+001140
X+047059Y+001140
X+039059Y+001140
X+041059Y+001140
X+043059Y+001140
X+065049Y+023149
X+067049Y+023149
X+069049Y+023149
X+054249Y+021249
X+063549Y+020700
X+061999Y+022401
T03
X+009400Y+028700
X+009400Y+026700
X+009400Y+024700
X+011400Y+024700
X+011400Y+026700
X+011400Y+028700
X+049599Y+028557G85X+049599Y+027657
X+042400Y+028557G85X+042400Y+027657
X+043589Y+025307
X+048430Y+025307
X+057000Y+020000
X+054830Y+019504
X+053090Y+018117
X+052125Y+016112
X+052125Y+013887
X+053090Y+011882
X+054830Y+010495
X+059169Y+010495
X+060909Y+011882
X+061874Y+013887
X+061874Y+016112
X+060909Y+018117
X+059169Y+019504
X+012999Y+020500
X+010444Y+019869
X+008473Y+018124
X+007540Y+015662
X+007857Y+013049
X+009352Y+010883
X+011683Y+009659
X+014316Y+009659
X+016647Y+010883
X+018142Y+013049
X+018459Y+015662
X+017526Y+018124
X+015555Y+019869
X+034999Y+020500
X+032443Y+019870
X+030473Y+018124
X+029540Y+015662
X+029857Y+013049
X+031352Y+010883
X+033683Y+009659
X+036316Y+009659
X+038647Y+010883
X+040142Y+013049
X+040459Y+015662
X+039526Y+018124
X+037555Y+019870
T04
X+066999Y+026999
X+067000Y+002999
X+003000Y+002999
X+002999Y+026999
M30
