G04 Layer: BottomSilkLayer*
G04 EasyEDA v6.4.5, 2020-08-30T10:48:13+03:00*
G04 413a31d708cc4da382682e4194c4ac02,19ad15c176e44a5d96a851d9d78d95a1,10*
G04 Gerber Generator version 0.2*
G04 Scale: 100 percent, Rotated: No, Reflected: No *
G04 Dimensions in millimeters *
G04 leading zeros omitted , absolute positions ,3 integer and 3 decimal *
%FSLAX33Y33*%
%MOMM*%
G90*
G71D02*

%ADD11C,0.200000*%
%ADD12C,0.250012*%
%ADD26C,0.299999*%
%ADD28C,0.399999*%
%ADD51C,0.254000*%
%ADD53C,0.203200*%
%ADD54C,0.127000*%
%ADD55C,0.151994*%
%ADD56C,0.152400*%

%LPD*%

%LPD*%
G36*
G01X44045Y9093D02*
G01X43948Y9094D01*
G01X43841Y9093D01*
G01X43755Y9093D01*
G01X43688Y9091D01*
G01X43636Y9089D01*
G01X43598Y9086D01*
G01X43571Y9082D01*
G01X43552Y9077D01*
G01X43540Y9070D01*
G01X43527Y9059D01*
G01X43516Y9046D01*
G01X43509Y9032D01*
G01X43506Y9019D01*
G01X43510Y9004D01*
G01X43521Y8970D01*
G01X43537Y8920D01*
G01X43559Y8856D01*
G01X43586Y8780D01*
G01X43617Y8695D01*
G01X43651Y8602D01*
G01X43723Y8404D01*
G01X43757Y8312D01*
G01X43787Y8229D01*
G01X43812Y8155D01*
G01X43833Y8094D01*
G01X43849Y8048D01*
G01X43858Y8017D01*
G01X43860Y8006D01*
G01X43850Y8006D01*
G01X43825Y8010D01*
G01X43787Y8018D01*
G01X43737Y8029D01*
G01X43678Y8043D01*
G01X43609Y8059D01*
G01X43535Y8077D01*
G01X43455Y8097D01*
G01X43374Y8117D01*
G01X43297Y8135D01*
G01X43226Y8152D01*
G01X43163Y8167D01*
G01X43108Y8179D01*
G01X43065Y8188D01*
G01X43034Y8194D01*
G01X43018Y8196D01*
G01X42983Y8189D01*
G01X42953Y8172D01*
G01X42931Y8148D01*
G01X42923Y8121D01*
G01X42925Y8115D01*
G01X42930Y8101D01*
G01X42940Y8079D01*
G01X42952Y8050D01*
G01X42968Y8014D01*
G01X42987Y7972D01*
G01X43009Y7923D01*
G01X43034Y7868D01*
G01X43062Y7807D01*
G01X43092Y7741D01*
G01X43124Y7671D01*
G01X43159Y7595D01*
G01X43196Y7515D01*
G01X43234Y7431D01*
G01X43275Y7344D01*
G01X43317Y7253D01*
G01X43360Y7159D01*
G01X43405Y7063D01*
G01X43451Y6964D01*
G01X43498Y6863D01*
G01X43550Y6751D01*
G01X43600Y6645D01*
G01X43647Y6545D01*
G01X43691Y6450D01*
G01X43733Y6362D01*
G01X43771Y6279D01*
G01X43808Y6202D01*
G01X43842Y6131D01*
G01X43874Y6064D01*
G01X43903Y6003D01*
G01X43930Y5947D01*
G01X43955Y5895D01*
G01X43978Y5849D01*
G01X43998Y5807D01*
G01X44017Y5769D01*
G01X44034Y5736D01*
G01X44049Y5707D01*
G01X44062Y5682D01*
G01X44074Y5661D01*
G01X44084Y5643D01*
G01X44092Y5630D01*
G01X44099Y5620D01*
G01X44105Y5613D01*
G01X44109Y5609D01*
G01X44145Y5597D01*
G01X44183Y5599D01*
G01X44216Y5613D01*
G01X44240Y5638D01*
G01X44241Y5645D01*
G01X44242Y5655D01*
G01X44241Y5670D01*
G01X44239Y5690D01*
G01X44235Y5715D01*
G01X44229Y5747D01*
G01X44221Y5785D01*
G01X44212Y5830D01*
G01X44200Y5882D01*
G01X44186Y5943D01*
G01X44170Y6012D01*
G01X44152Y6090D01*
G01X44131Y6178D01*
G01X44108Y6275D01*
G01X44081Y6383D01*
G01X44052Y6502D01*
G01X44032Y6587D01*
G01X44011Y6670D01*
G01X43992Y6751D01*
G01X43973Y6828D01*
G01X43955Y6902D01*
G01X43938Y6973D01*
G01X43921Y7039D01*
G01X43906Y7100D01*
G01X43893Y7156D01*
G01X43880Y7207D01*
G01X43869Y7251D01*
G01X43860Y7289D01*
G01X43853Y7321D01*
G01X43847Y7344D01*
G01X43841Y7368D01*
G01X43840Y7377D01*
G01X43847Y7383D01*
G01X43865Y7384D01*
G01X43898Y7379D01*
G01X43952Y7368D01*
G01X44030Y7350D01*
G01X44136Y7324D01*
G01X44276Y7290D01*
G01X44403Y7258D01*
G01X44504Y7234D01*
G01X44584Y7215D01*
G01X44644Y7203D01*
G01X44689Y7195D01*
G01X44720Y7192D01*
G01X44742Y7193D01*
G01X44756Y7197D01*
G01X44771Y7206D01*
G01X44785Y7218D01*
G01X44795Y7231D01*
G01X44801Y7245D01*
G01X44801Y7257D01*
G01X44798Y7281D01*
G01X44782Y7361D01*
G01X44770Y7416D01*
G01X44756Y7479D01*
G01X44740Y7549D01*
G01X44723Y7626D01*
G01X44703Y7708D01*
G01X44683Y7795D01*
G01X44661Y7886D01*
G01X44638Y7979D01*
G01X44615Y8074D01*
G01X44592Y8170D01*
G01X44568Y8266D01*
G01X44544Y8361D01*
G01X44521Y8454D01*
G01X44498Y8544D01*
G01X44476Y8630D01*
G01X44455Y8711D01*
G01X44435Y8786D01*
G01X44416Y8855D01*
G01X44400Y8916D01*
G01X44385Y8969D01*
G01X44372Y9012D01*
G01X44362Y9044D01*
G01X44354Y9066D01*
G01X44349Y9075D01*
G01X44338Y9079D01*
G01X44318Y9084D01*
G01X44288Y9087D01*
G01X44247Y9089D01*
G01X44193Y9091D01*
G01X44126Y9093D01*
G01X44045Y9093D01*
G37*

%LPD*%
G54D11*
G01X23619Y20610D02*
G01X22399Y20610D01*
G01X22189Y20819D01*
G01X29399Y5150D02*
G01X29399Y5650D01*
G01X28749Y6300D01*
G54D26*
G01X12999Y12700D02*
G01X12999Y13200D01*
G01X11999Y13200D01*
G01X11999Y11200D01*
G01X13999Y11200D01*
G01X13999Y13200D01*
G54D11*
G01X8400Y29700D02*
G01X12400Y29700D01*
G01X12400Y23700D01*
G01X8400Y23700D01*
G01X8400Y29700D01*
G54D12*
G01X17332Y26849D02*
G01X17249Y26849D01*
G01X17249Y26849D02*
G01X17249Y25449D01*
G01X17332Y25449D02*
G01X17249Y25449D01*
G01X19367Y26849D02*
G01X19449Y26849D01*
G01X19449Y26849D02*
G01X19449Y25449D01*
G01X19449Y25449D02*
G01X19367Y25449D01*
G54D51*
G01X8499Y5650D02*
G01X12499Y5650D01*
G01X8499Y8550D02*
G01X12499Y8550D01*
G01X8499Y5650D02*
G01X8499Y5868D01*
G01X8499Y8331D02*
G01X8499Y8550D01*
G01X12499Y5650D02*
G01X12499Y5868D01*
G01X12499Y8331D02*
G01X12499Y8550D01*
G01X59525Y13979D02*
G01X57925Y13979D01*
G01X57930Y15830D02*
G01X57930Y17080D01*
G01X59530Y15830D02*
G01X59530Y17080D01*
G01X57925Y15229D02*
G01X57925Y13979D01*
G01X59525Y15229D02*
G01X59525Y13979D01*
G01X59530Y17080D02*
G01X57930Y17080D01*
G01X55449Y11649D02*
G01X55449Y13250D01*
G01X57300Y13244D02*
G01X58550Y13244D01*
G01X57300Y11644D02*
G01X58550Y11644D01*
G01X56699Y13250D02*
G01X55449Y13250D01*
G01X56699Y11649D02*
G01X55449Y11649D01*
G01X58550Y11644D02*
G01X58550Y13244D01*
G01X21675Y35625D02*
G01X23275Y35625D01*
G01X23269Y33774D02*
G01X23269Y32524D01*
G01X21669Y33774D02*
G01X21669Y32524D01*
G01X23275Y34374D02*
G01X23275Y35625D01*
G01X21675Y34374D02*
G01X21675Y35625D01*
G01X21669Y32524D02*
G01X23269Y32524D01*
G01X21950Y58298D02*
G01X21950Y55198D01*
G01X25050Y55198D02*
G01X21951Y55198D01*
G01X25049Y58298D02*
G01X21950Y58298D01*
G01X25050Y55199D02*
G01X25050Y58298D01*
G01X14424Y24625D02*
G01X13764Y24625D01*
G01X14424Y24625D01*
G01X13764Y24625D01*
G01X13764Y23810D01*
G01X16684Y23810D02*
G01X16684Y24625D01*
G01X16024Y24625D01*
G54D11*
G01X15524Y23075D02*
G01X14924Y23075D01*
G54D51*
G01X42300Y21400D02*
G01X42300Y13600D01*
G01X49700Y21400D02*
G01X49700Y13600D01*
G01X19975Y24100D02*
G01X21575Y24100D01*
G01X21570Y22249D02*
G01X21570Y20999D01*
G01X19970Y22249D02*
G01X19970Y20999D01*
G01X21575Y22850D02*
G01X21575Y24100D01*
G01X19975Y22850D02*
G01X19975Y24100D01*
G01X19970Y20999D02*
G01X21570Y20999D01*
G01X24799Y18699D02*
G01X26399Y18699D01*
G01X26394Y16849D02*
G01X26394Y15599D01*
G01X24794Y16849D02*
G01X24794Y15599D01*
G01X26399Y17449D02*
G01X26399Y18699D01*
G01X24799Y17449D02*
G01X24799Y18699D01*
G01X24794Y15599D02*
G01X26394Y15599D01*
G01X24798Y14951D02*
G01X26398Y14951D01*
G01X26393Y13100D02*
G01X26393Y11850D01*
G01X24793Y13100D02*
G01X24793Y11850D01*
G01X26398Y13701D02*
G01X26398Y14951D01*
G01X24798Y13701D02*
G01X24798Y14951D01*
G01X24793Y11850D02*
G01X26393Y11850D01*
G01X24798Y11199D02*
G01X26398Y11199D01*
G01X26393Y9348D02*
G01X26393Y8098D01*
G01X24793Y9348D02*
G01X24793Y8098D01*
G01X26398Y9949D02*
G01X26398Y11199D01*
G01X24798Y9949D02*
G01X24798Y11199D01*
G01X24793Y8098D02*
G01X26393Y8098D01*
G01X44818Y2850D02*
G01X44818Y1600D01*
G01X42779Y2850D02*
G01X42779Y1600D01*
G01X44818Y3850D02*
G01X44818Y5100D01*
G01X42779Y3850D02*
G01X42779Y5100D01*
G01X44818Y1600D02*
G01X42779Y1600D01*
G01X44818Y5100D02*
G01X42779Y5100D01*
G01X43001Y11660D02*
G01X44251Y11660D01*
G01X43001Y9620D02*
G01X44251Y9620D01*
G01X42001Y11660D02*
G01X40751Y11660D01*
G01X42001Y9620D02*
G01X40751Y9620D01*
G01X44251Y11660D02*
G01X44251Y9620D01*
G01X40751Y11660D02*
G01X40751Y9620D01*
G01X21674Y52875D02*
G01X23274Y52875D01*
G01X23269Y51025D02*
G01X23269Y49775D01*
G01X21669Y51025D02*
G01X21669Y49775D01*
G01X23274Y51625D02*
G01X23274Y52875D01*
G01X21674Y51625D02*
G01X21674Y52875D01*
G01X21669Y49775D02*
G01X23269Y49775D01*
G01X23724Y52875D02*
G01X25324Y52875D01*
G01X25319Y51025D02*
G01X25319Y49775D01*
G01X23719Y51025D02*
G01X23719Y49775D01*
G01X25324Y51625D02*
G01X25324Y52875D01*
G01X23724Y51625D02*
G01X23724Y52875D01*
G01X23719Y49775D02*
G01X25319Y49775D01*
G01X19924Y27750D02*
G01X21524Y27750D01*
G01X21519Y25899D02*
G01X21519Y24649D01*
G01X19919Y25899D02*
G01X19919Y24649D01*
G01X21524Y26500D02*
G01X21524Y27750D01*
G01X19924Y26500D02*
G01X19924Y27750D01*
G01X19919Y24649D02*
G01X21519Y24649D01*
G01X19500Y21000D02*
G01X17900Y21000D01*
G01X17905Y22850D02*
G01X17905Y24100D01*
G01X19505Y22850D02*
G01X19505Y24100D01*
G01X17900Y22250D02*
G01X17900Y21000D01*
G01X19500Y22250D02*
G01X19500Y21000D01*
G01X19505Y24100D02*
G01X17905Y24100D01*
G01X67900Y22451D02*
G01X67900Y20850D01*
G01X66049Y20856D02*
G01X64799Y20856D01*
G01X66049Y22456D02*
G01X64799Y22456D01*
G01X66650Y20850D02*
G01X67900Y20850D01*
G01X66650Y22451D02*
G01X67900Y22451D01*
G01X64799Y22456D02*
G01X64799Y20856D01*
G01X67900Y9601D02*
G01X67900Y8001D01*
G01X66049Y8006D02*
G01X64799Y8006D01*
G01X66049Y9606D02*
G01X64799Y9606D01*
G01X66650Y8001D02*
G01X67900Y8001D01*
G01X66650Y9601D02*
G01X67900Y9601D01*
G01X64799Y9606D02*
G01X64799Y8006D01*
G01X35179Y3850D02*
G01X35179Y5100D01*
G01X37219Y3850D02*
G01X37219Y5100D01*
G01X35179Y2850D02*
G01X35179Y1600D01*
G01X37219Y2850D02*
G01X37219Y1600D01*
G01X35179Y5100D02*
G01X37219Y5100D01*
G01X35179Y1600D02*
G01X37219Y1600D01*
G01X33249Y29199D02*
G01X32049Y29199D01*
G01X33449Y27150D02*
G01X33449Y26149D01*
G01X31849Y27150D02*
G01X31849Y26149D01*
G01X33449Y27950D02*
G01X33449Y28949D01*
G01X31849Y27950D02*
G01X31849Y28949D01*
G01X33249Y25899D02*
G01X32049Y25899D01*
G01X33449Y26099D02*
G01X33449Y26149D01*
G01X31849Y26099D02*
G01X31849Y26149D01*
G01X33449Y28999D02*
G01X33449Y28949D01*
G01X31849Y28999D02*
G01X31849Y28949D01*
G01X33449Y7500D02*
G01X31449Y7500D01*
G01X33449Y5700D02*
G01X31449Y5700D01*
G01X33087Y7500D02*
G01X33087Y5700D01*
G01X55799Y24804D02*
G01X55799Y22877D01*
G01X59099Y22877D01*
G01X59099Y22343D01*
G01X55799Y22343D01*
G01X55799Y22877D01*
G01X59099Y26404D02*
G01X59099Y28331D01*
G01X55799Y28331D01*
G01X55799Y26404D01*
G01X59099Y24804D02*
G01X59099Y22877D01*
G01X33449Y22350D02*
G01X31849Y22350D01*
G01X31855Y24200D02*
G01X31855Y25450D01*
G01X33455Y24200D02*
G01X33455Y25450D01*
G01X31849Y23600D02*
G01X31849Y22350D01*
G01X33449Y23600D02*
G01X33449Y22350D01*
G01X33455Y25450D02*
G01X31855Y25450D01*
G01X30899Y25508D02*
G01X30899Y26778D01*
G01X22100Y26778D01*
G01X22100Y26778D02*
G01X22100Y23247D01*
G01X22100Y23247D02*
G01X30944Y23247D01*
G01X30944Y24365D01*
G01X54193Y1723D02*
G01X54193Y8276D01*
G01X47995Y1723D02*
G01X54193Y1723D01*
G01X54193Y8276D02*
G01X47995Y8276D01*
G01X13799Y14725D02*
G01X13799Y16725D01*
G01X12199Y14725D02*
G01X12199Y16725D01*
G01X13799Y15373D02*
G01X12199Y15373D01*
G01X15849Y14725D02*
G01X15849Y16725D01*
G01X14249Y14725D02*
G01X14249Y16725D01*
G01X15849Y15373D02*
G01X14249Y15373D01*
G01X34220Y2199D02*
G01X34220Y4199D01*
G01X32620Y2199D02*
G01X32620Y4199D01*
G01X34220Y2848D02*
G01X32620Y2848D01*
G01X32210Y2199D02*
G01X32210Y4199D01*
G01X30610Y2199D02*
G01X30610Y4199D01*
G01X32210Y2848D02*
G01X30610Y2848D01*
G01X30200Y2199D02*
G01X30200Y4199D01*
G01X28600Y2199D02*
G01X28600Y4199D01*
G01X30200Y2848D02*
G01X28600Y2848D01*
G01X2280Y6760D02*
G01X4280Y6760D01*
G01X2280Y8360D02*
G01X4280Y8360D01*
G01X2928Y6760D02*
G01X2928Y8360D01*
G01X2280Y8760D02*
G01X4280Y8760D01*
G01X2280Y10360D02*
G01X4280Y10360D01*
G01X2928Y8760D02*
G01X2928Y10360D01*
G01X2280Y10760D02*
G01X4280Y10760D01*
G01X2280Y12360D02*
G01X4280Y12360D01*
G01X2928Y10760D02*
G01X2928Y12360D01*
G01X2280Y12760D02*
G01X4280Y12760D01*
G01X2280Y14360D02*
G01X4280Y14360D01*
G01X2928Y12760D02*
G01X2928Y14360D01*
G01X11799Y14725D02*
G01X11799Y16725D01*
G01X10199Y14725D02*
G01X10199Y16725D01*
G01X11799Y15373D02*
G01X10199Y15373D01*
G01X42030Y30827D02*
G01X42030Y30727D01*
G01X42620Y30137D01*
G01X49979Y30847D02*
G01X49979Y30727D01*
G01X49389Y30137D01*
G01X49389Y30137D02*
G01X42620Y30137D01*
G01X50000Y30847D02*
G01X42000Y30847D01*
G01X42000Y25087D02*
G01X42762Y25087D01*
G01X49258Y25087D02*
G01X50000Y25087D01*
G01X50000Y25087D02*
G01X50000Y26872D01*
G01X50000Y29342D02*
G01X50000Y30819D01*
G01X42000Y25087D02*
G01X42000Y26872D01*
G01X42000Y29342D02*
G01X42000Y30827D01*
G01X51449Y24804D02*
G01X51449Y22877D01*
G01X54749Y22877D01*
G01X54749Y22343D01*
G01X51449Y22343D01*
G01X51449Y22877D01*
G01X54749Y26404D02*
G01X54749Y28331D01*
G01X51449Y28331D01*
G01X51449Y26404D01*
G01X54749Y24804D02*
G01X54749Y22877D01*
G01X59499Y4350D02*
G01X58839Y4350D01*
G01X59499Y4350D01*
G01X58839Y4350D01*
G01X58839Y3534D01*
G01X61759Y3534D02*
G01X61759Y4350D01*
G01X61099Y4350D01*
G54D11*
G01X60599Y2800D02*
G01X59999Y2800D01*
G54D51*
G01X41600Y8319D02*
G01X38600Y8319D01*
G01X41600Y1679D02*
G01X38600Y1679D01*
G01X38320Y6400D02*
G01X38320Y8099D01*
G01X41880Y6400D02*
G01X41880Y8099D01*
G01X38320Y3600D02*
G01X38320Y1899D01*
G01X41880Y3599D02*
G01X41880Y1899D01*
G01X41660Y8319D02*
G01X41600Y8319D01*
G01X38540Y8319D02*
G01X38600Y8319D01*
G01X41659Y1679D02*
G01X41600Y1679D01*
G01X38540Y1679D02*
G01X38726Y1679D01*
G01X60349Y23349D02*
G01X61549Y23349D01*
G01X60149Y25399D02*
G01X60149Y26399D01*
G01X61749Y25399D02*
G01X61749Y26399D01*
G01X60149Y24599D02*
G01X60149Y23600D01*
G01X61749Y24599D02*
G01X61749Y23600D01*
G01X60349Y26650D02*
G01X61549Y26650D01*
G01X60149Y26450D02*
G01X60149Y26399D01*
G01X61749Y26449D02*
G01X61749Y26399D01*
G01X60149Y23549D02*
G01X60149Y23600D01*
G01X61749Y23550D02*
G01X61749Y23600D01*
G01X1270Y20800D02*
G01X5269Y20800D01*
G01X5269Y17600D01*
G01X1270Y17600D01*
G01X1270Y20800D01*
G01X33399Y13269D02*
G01X33399Y17269D01*
G01X36599Y17269D01*
G01X36599Y13269D01*
G01X33399Y13269D01*
G01X64270Y16900D02*
G01X68270Y16900D01*
G01X68270Y13700D01*
G01X64270Y13700D01*
G01X64270Y16900D01*
G01X59299Y6500D02*
G01X61299Y6500D01*
G01X59299Y8100D02*
G01X61299Y8100D01*
G01X59948Y6500D02*
G01X59948Y8100D01*
G01X21665Y20360D02*
G01X20849Y20360D01*
G01X20849Y19700D01*
G01X20849Y18099D02*
G01X20849Y17440D01*
G01X20849Y18099D01*
G01X20849Y17440D01*
G01X21665Y17440D01*
G54D11*
G01X22399Y19199D02*
G01X22399Y18600D01*
G54D51*
G01X21665Y13359D02*
G01X20849Y13359D01*
G01X20849Y12700D01*
G01X20849Y11099D02*
G01X20849Y10440D01*
G01X20849Y11099D01*
G01X20849Y10440D01*
G01X21665Y10440D01*
G54D11*
G01X22399Y12199D02*
G01X22399Y11600D01*
G54D51*
G01X27759Y3184D02*
G01X27759Y4000D01*
G01X27100Y4000D01*
G01X25499Y4000D02*
G01X24839Y4000D01*
G01X25499Y4000D01*
G01X24839Y4000D01*
G01X24839Y3184D01*
G54D11*
G01X26599Y2450D02*
G01X25999Y2450D01*
G54D51*
G01X21665Y16859D02*
G01X20849Y16859D01*
G01X20849Y16200D01*
G01X20849Y14599D02*
G01X20849Y13940D01*
G01X20849Y14599D01*
G01X20849Y13940D01*
G01X21665Y13940D01*
G54D11*
G01X22399Y15699D02*
G01X22399Y15100D01*
G54D51*
G01X21665Y9860D02*
G01X20849Y9860D01*
G01X20849Y9200D01*
G01X20849Y7599D02*
G01X20849Y6940D01*
G01X20849Y7599D01*
G01X20849Y6940D01*
G01X21665Y6940D01*
G54D11*
G01X22399Y8699D02*
G01X22399Y8100D01*
G54D51*
G01X24259Y3184D02*
G01X24259Y4000D01*
G01X23600Y4000D01*
G01X21999Y4000D02*
G01X21339Y4000D01*
G01X21999Y4000D01*
G01X21339Y4000D01*
G01X21339Y3184D01*
G54D11*
G01X23099Y2450D02*
G01X22500Y2450D01*
G54D51*
G01X20758Y3184D02*
G01X20758Y4000D01*
G01X20099Y4000D01*
G01X18498Y4000D02*
G01X17839Y4000D01*
G01X18498Y4000D01*
G01X17839Y4000D01*
G01X17839Y3184D01*
G54D11*
G01X19598Y2450D02*
G01X18999Y2450D01*
G54D51*
G01X17259Y3184D02*
G01X17259Y4000D01*
G01X16600Y4000D01*
G01X14999Y4000D02*
G01X14340Y4000D01*
G01X14999Y4000D01*
G01X14340Y4000D01*
G01X14340Y3184D01*
G54D11*
G01X16099Y2450D02*
G01X15500Y2450D01*
G54D51*
G01X13759Y3184D02*
G01X13759Y4000D01*
G01X13100Y4000D01*
G01X11499Y4000D02*
G01X10839Y4000D01*
G01X11499Y4000D01*
G01X10839Y4000D01*
G01X10839Y3184D01*
G54D11*
G01X12599Y2450D02*
G01X12000Y2450D01*
G54D51*
G01X10259Y3184D02*
G01X10259Y4000D01*
G01X9600Y4000D01*
G01X7999Y4000D02*
G01X7339Y4000D01*
G01X7999Y4000D01*
G01X7339Y4000D01*
G01X7339Y3184D01*
G54D11*
G01X9099Y2450D02*
G01X8500Y2450D01*
G54D51*
G01X34449Y24804D02*
G01X34449Y22877D01*
G01X37749Y22877D01*
G01X37749Y22343D01*
G01X34449Y22343D01*
G01X34449Y22877D01*
G01X37749Y26404D02*
G01X37749Y28331D01*
G01X34449Y28331D01*
G01X34449Y26404D01*
G01X37749Y24804D02*
G01X37749Y22877D01*
G01X38999Y25899D02*
G01X40199Y25899D01*
G01X38799Y27949D02*
G01X38799Y28949D01*
G01X40399Y27949D02*
G01X40399Y28949D01*
G01X38799Y27149D02*
G01X38799Y26149D01*
G01X40399Y27149D02*
G01X40399Y26149D01*
G01X38999Y29199D02*
G01X40199Y29199D01*
G01X38799Y28999D02*
G01X38799Y28949D01*
G01X40399Y28999D02*
G01X40399Y28949D01*
G01X38799Y26099D02*
G01X38799Y26149D01*
G01X40399Y26099D02*
G01X40399Y26149D01*
G01X21849Y49149D02*
G01X21849Y47949D01*
G01X23899Y49349D02*
G01X24899Y49349D01*
G01X23899Y47749D02*
G01X24899Y47749D01*
G01X23099Y49349D02*
G01X22099Y49349D01*
G01X23099Y47749D02*
G01X22099Y47749D01*
G01X25149Y49149D02*
G01X25149Y47949D01*
G01X24949Y49349D02*
G01X24899Y49349D01*
G01X24949Y47749D02*
G01X24899Y47749D01*
G01X22049Y49349D02*
G01X22099Y49349D01*
G01X22049Y47749D02*
G01X22099Y47749D01*
G01X16849Y27499D02*
G01X16849Y28699D01*
G01X14799Y27299D02*
G01X13799Y27299D01*
G01X14799Y28900D02*
G01X13799Y28900D01*
G01X15600Y27299D02*
G01X16599Y27299D01*
G01X15600Y28900D02*
G01X16599Y28900D01*
G01X13549Y27499D02*
G01X13549Y28699D01*
G01X13749Y27299D02*
G01X13799Y27299D01*
G01X13749Y28900D02*
G01X13799Y28900D01*
G01X16649Y27299D02*
G01X16599Y27299D01*
G01X16649Y28900D02*
G01X16599Y28900D01*
G54D54*
G01X19449Y26849D02*
G01X19449Y25449D01*
G01X17249Y26849D02*
G01X17249Y25449D01*
G01X17249Y25449D02*
G01X17332Y25449D01*
G01X19367Y25449D02*
G01X19449Y25449D01*
G01X17249Y26849D02*
G01X17332Y26849D01*
G01X19367Y26849D02*
G01X19449Y26849D01*
G54D51*
G01X46528Y9650D02*
G01X46528Y11650D01*
G01X45678Y11650D02*
G01X48678Y11650D01*
G01X48678Y9650D02*
G01X45678Y9650D01*
G01X57349Y15354D02*
G01X57349Y16170D01*
G01X56689Y16170D01*
G01X55089Y16170D02*
G01X54429Y16170D01*
G01X55089Y16170D01*
G01X54429Y16170D01*
G01X54429Y15354D01*
G54D11*
G01X56189Y14620D02*
G01X55589Y14620D01*
G54D51*
G01X25125Y35710D02*
G01X23925Y35710D01*
G01X25325Y33660D02*
G01X25325Y32660D01*
G01X23725Y33660D02*
G01X23725Y32660D01*
G01X25325Y34460D02*
G01X25325Y35460D01*
G01X23725Y34460D02*
G01X23725Y35460D01*
G01X25125Y32410D02*
G01X23925Y32410D01*
G01X25325Y32610D02*
G01X25325Y32660D01*
G01X23725Y32610D02*
G01X23725Y32660D01*
G01X25325Y35510D02*
G01X25325Y35460D01*
G01X23725Y35510D02*
G01X23725Y35460D01*
G01X11949Y22950D02*
G01X11949Y21349D01*
G01X10099Y21355D02*
G01X8849Y21355D01*
G01X10099Y22955D02*
G01X8849Y22955D01*
G01X10699Y21349D02*
G01X11949Y21349D01*
G01X10699Y22950D02*
G01X11949Y22950D01*
G01X8849Y22955D02*
G01X8849Y21355D01*
G01X38799Y25449D02*
G01X40399Y25449D01*
G01X40394Y23599D02*
G01X40394Y22349D01*
G01X38794Y23599D02*
G01X38794Y22349D01*
G01X40399Y24199D02*
G01X40399Y25449D01*
G01X38799Y24199D02*
G01X38799Y25449D01*
G01X38794Y22349D02*
G01X40394Y22349D01*
G01X50449Y19399D02*
G01X50449Y21000D01*
G01X52300Y20994D02*
G01X53550Y20994D01*
G01X52300Y19394D02*
G01X53550Y19394D01*
G01X51699Y21000D02*
G01X50449Y21000D01*
G01X51699Y19399D02*
G01X50449Y19399D01*
G01X53550Y19394D02*
G01X53550Y20994D01*
G54D53*
G01X7850Y24860D02*
G01X7850Y23715D01*
G01X6726Y24697D02*
G01X6835Y24806D01*
G01X6999Y24860D01*
G01X7217Y24860D01*
G01X7380Y24806D01*
G01X7490Y24697D01*
G01X7490Y24588D01*
G01X7435Y24479D01*
G01X7380Y24424D01*
G01X7271Y24370D01*
G01X6944Y24260D01*
G01X6835Y24206D01*
G01X6780Y24151D01*
G01X6726Y24042D01*
G01X6726Y23879D01*
G01X6835Y23770D01*
G01X6999Y23715D01*
G01X7217Y23715D01*
G01X7380Y23770D01*
G01X7490Y23879D01*
G01X6366Y24860D02*
G01X6366Y23715D01*
G01X6366Y24860D02*
G01X5875Y24860D01*
G01X5711Y24806D01*
G01X5657Y24751D01*
G01X5602Y24642D01*
G01X5602Y24479D01*
G01X5657Y24370D01*
G01X5711Y24315D01*
G01X5875Y24260D01*
G01X6366Y24260D01*
G54D55*
G01X28499Y7484D02*
G01X28499Y6529D01*
G01X28499Y7484D02*
G01X28181Y7484D01*
G01X28045Y7438D01*
G01X27954Y7347D01*
G01X27909Y7256D01*
G01X27863Y7120D01*
G01X27863Y6893D01*
G01X27909Y6756D01*
G01X27954Y6665D01*
G01X28045Y6575D01*
G01X28181Y6529D01*
G01X28499Y6529D01*
G01X27018Y7484D02*
G01X27472Y7484D01*
G01X27518Y7075D01*
G01X27472Y7120D01*
G01X27336Y7165D01*
G01X27199Y7165D01*
G01X27063Y7120D01*
G01X26972Y7029D01*
G01X26927Y6893D01*
G01X26927Y6802D01*
G01X26972Y6665D01*
G01X27063Y6575D01*
G01X27199Y6529D01*
G01X27336Y6529D01*
G01X27472Y6575D01*
G01X27518Y6620D01*
G01X27563Y6711D01*
G01X26627Y6938D02*
G01X25809Y6938D01*
G01X24872Y7484D02*
G01X25327Y6529D01*
G01X25509Y7484D02*
G01X24872Y7484D01*
G01X6448Y10620D02*
G01X5494Y10620D01*
G01X6448Y10620D02*
G01X6448Y10938D01*
G01X6403Y11074D01*
G01X6312Y11165D01*
G01X6221Y11211D01*
G01X6085Y11256D01*
G01X5858Y11256D01*
G01X5721Y11211D01*
G01X5630Y11165D01*
G01X5539Y11074D01*
G01X5494Y10938D01*
G01X5494Y10620D01*
G01X6448Y11783D02*
G01X6403Y11647D01*
G01X6312Y11601D01*
G01X6221Y11601D01*
G01X6130Y11647D01*
G01X6085Y11738D01*
G01X6039Y11920D01*
G01X5994Y12056D01*
G01X5903Y12147D01*
G01X5812Y12192D01*
G01X5676Y12192D01*
G01X5585Y12147D01*
G01X5539Y12101D01*
G01X5494Y11965D01*
G01X5494Y11783D01*
G01X5539Y11647D01*
G01X5585Y11601D01*
G01X5676Y11556D01*
G01X5812Y11556D01*
G01X5903Y11601D01*
G01X5994Y11692D01*
G01X6039Y11829D01*
G01X6085Y12011D01*
G01X6130Y12101D01*
G01X6221Y12147D01*
G01X6312Y12147D01*
G01X6403Y12101D01*
G01X6448Y11965D01*
G01X6448Y11783D01*
G01X5903Y12492D02*
G01X5903Y13311D01*
G01X6267Y13611D02*
G01X6312Y13701D01*
G01X6448Y13838D01*
G01X5494Y13838D01*
G01X6267Y14138D02*
G01X6312Y14229D01*
G01X6448Y14365D01*
G01X5494Y14365D01*
G54D56*
G01X8213Y9812D02*
G01X8304Y9903D01*
G01X8440Y9949D01*
G01X8622Y9949D01*
G01X8759Y9903D01*
G01X8849Y9812D01*
G01X8849Y9722D01*
G01X8804Y9631D01*
G01X8759Y9585D01*
G01X8668Y9540D01*
G01X8395Y9449D01*
G01X8304Y9403D01*
G01X8259Y9358D01*
G01X8213Y9267D01*
G01X8213Y9131D01*
G01X8304Y9040D01*
G01X8440Y8994D01*
G01X8622Y8994D01*
G01X8759Y9040D01*
G01X8849Y9131D01*
G01X7913Y9949D02*
G01X7686Y8994D01*
G01X7459Y9949D02*
G01X7686Y8994D01*
G01X7459Y9949D02*
G01X7231Y8994D01*
G01X7004Y9949D02*
G01X7231Y8994D01*
G01X6704Y9767D02*
G01X6613Y9812D01*
G01X6477Y9949D01*
G01X6477Y8994D01*
G01X59719Y18389D02*
G01X59719Y17434D01*
G01X59719Y18389D02*
G01X59310Y18389D01*
G01X59174Y18343D01*
G01X59128Y18298D01*
G01X59083Y18207D01*
G01X59083Y18116D01*
G01X59128Y18025D01*
G01X59174Y17980D01*
G01X59310Y17934D01*
G01X59719Y17934D01*
G01X59401Y17934D02*
G01X59083Y17434D01*
G01X58783Y18207D02*
G01X58692Y18252D01*
G01X58556Y18389D01*
G01X58556Y17434D01*
G01X57619Y18389D02*
G01X58074Y17434D01*
G01X58256Y18389D02*
G01X57619Y18389D01*
G01X60899Y13678D02*
G01X60899Y12723D01*
G01X60899Y13678D02*
G01X60490Y13678D01*
G01X60353Y13632D01*
G01X60310Y13587D01*
G01X60264Y13498D01*
G01X60264Y13406D01*
G01X60310Y13315D01*
G01X60353Y13269D01*
G01X60490Y13223D01*
G01X60899Y13223D01*
G01X60582Y13223D02*
G01X60264Y12723D01*
G01X59964Y13498D02*
G01X59873Y13541D01*
G01X59736Y13678D01*
G01X59736Y12723D01*
G01X58890Y13541D02*
G01X58936Y13632D01*
G01X59073Y13678D01*
G01X59164Y13678D01*
G01X59299Y13632D01*
G01X59390Y13498D01*
G01X59436Y13269D01*
G01X59436Y13043D01*
G01X59390Y12860D01*
G01X59299Y12769D01*
G01X59164Y12723D01*
G01X59119Y12723D01*
G01X58981Y12769D01*
G01X58890Y12860D01*
G01X58844Y12997D01*
G01X58844Y13043D01*
G01X58890Y13178D01*
G01X58981Y13269D01*
G01X59119Y13315D01*
G01X59164Y13315D01*
G01X59299Y13269D01*
G01X59390Y13178D01*
G01X59436Y13043D01*
G01X21390Y38199D02*
G01X22345Y38199D01*
G01X21390Y38199D02*
G01X21390Y37790D01*
G01X21436Y37654D01*
G01X21481Y37609D01*
G01X21572Y37563D01*
G01X21663Y37563D01*
G01X21754Y37609D01*
G01X21799Y37654D01*
G01X21845Y37790D01*
G01X21845Y38199D01*
G01X21845Y37881D02*
G01X22345Y37563D01*
G01X21572Y37263D02*
G01X21527Y37172D01*
G01X21390Y37036D01*
G01X22345Y37036D01*
G01X21618Y36690D02*
G01X21572Y36690D01*
G01X21481Y36645D01*
G01X21436Y36599D01*
G01X21390Y36509D01*
G01X21390Y36327D01*
G01X21436Y36236D01*
G01X21481Y36190D01*
G01X21572Y36145D01*
G01X21663Y36145D01*
G01X21754Y36190D01*
G01X21890Y36281D01*
G01X22345Y36736D01*
G01X22345Y36099D01*
G01X25549Y54409D02*
G01X25549Y53727D01*
G01X25504Y53590D01*
G01X25413Y53499D01*
G01X25277Y53454D01*
G01X25186Y53454D01*
G01X25049Y53499D01*
G01X24959Y53590D01*
G01X24913Y53727D01*
G01X24913Y54409D01*
G01X24068Y54272D02*
G01X24113Y54363D01*
G01X24249Y54409D01*
G01X24340Y54409D01*
G01X24477Y54363D01*
G01X24568Y54227D01*
G01X24613Y53999D01*
G01X24613Y53772D01*
G01X24568Y53590D01*
G01X24477Y53499D01*
G01X24340Y53454D01*
G01X24295Y53454D01*
G01X24159Y53499D01*
G01X24068Y53590D01*
G01X24022Y53727D01*
G01X24022Y53772D01*
G01X24068Y53909D01*
G01X24159Y53999D01*
G01X24295Y54045D01*
G01X24340Y54045D01*
G01X24477Y53999D01*
G01X24568Y53909D01*
G01X24613Y53772D01*
G01X15449Y21759D02*
G01X15449Y21077D01*
G01X15404Y20940D01*
G01X15313Y20849D01*
G01X15177Y20804D01*
G01X15086Y20804D01*
G01X14949Y20849D01*
G01X14859Y20940D01*
G01X14813Y21077D01*
G01X14813Y21759D01*
G01X13968Y21759D02*
G01X14422Y21759D01*
G01X14468Y21349D01*
G01X14422Y21395D01*
G01X14286Y21440D01*
G01X14149Y21440D01*
G01X14013Y21395D01*
G01X13922Y21304D01*
G01X13877Y21168D01*
G01X13877Y21077D01*
G01X13922Y20940D01*
G01X14013Y20849D01*
G01X14149Y20804D01*
G01X14286Y20804D01*
G01X14422Y20849D01*
G01X14468Y20895D01*
G01X14513Y20986D01*
G01X51399Y17959D02*
G01X51399Y17004D01*
G01X51399Y17004D02*
G01X50854Y17004D01*
G01X50554Y17777D02*
G01X50463Y17822D01*
G01X50327Y17959D01*
G01X50327Y17004D01*
G01X25479Y20659D02*
G01X25479Y19704D01*
G01X25479Y20659D02*
G01X25070Y20659D01*
G01X24934Y20613D01*
G01X24889Y20568D01*
G01X24843Y20477D01*
G01X24843Y20386D01*
G01X24889Y20295D01*
G01X24934Y20249D01*
G01X25070Y20204D01*
G01X25479Y20204D01*
G01X25161Y20204D02*
G01X24843Y19704D01*
G01X24452Y20659D02*
G01X23952Y20659D01*
G01X24225Y20295D01*
G01X24089Y20295D01*
G01X23998Y20249D01*
G01X23952Y20204D01*
G01X23907Y20068D01*
G01X23907Y19977D01*
G01X23952Y19840D01*
G01X24043Y19749D01*
G01X24179Y19704D01*
G01X24316Y19704D01*
G01X24452Y19749D01*
G01X24498Y19795D01*
G01X24543Y19886D01*
G01X28499Y17584D02*
G01X28499Y16629D01*
G01X28499Y17584D02*
G01X28090Y17584D01*
G01X27953Y17538D01*
G01X27908Y17493D01*
G01X27863Y17402D01*
G01X27863Y17311D01*
G01X27908Y17220D01*
G01X27953Y17174D01*
G01X28090Y17129D01*
G01X28499Y17129D01*
G01X28181Y17129D02*
G01X27863Y16629D01*
G01X27108Y17584D02*
G01X27563Y16947D01*
G01X26881Y16947D01*
G01X27108Y17584D02*
G01X27108Y16629D01*
G01X28450Y13834D02*
G01X28450Y12879D01*
G01X28450Y13834D02*
G01X28040Y13834D01*
G01X27904Y13788D01*
G01X27859Y13743D01*
G01X27813Y13652D01*
G01X27813Y13561D01*
G01X27859Y13470D01*
G01X27904Y13425D01*
G01X28040Y13379D01*
G01X28450Y13379D01*
G01X28131Y13379D02*
G01X27813Y12879D01*
G01X26968Y13834D02*
G01X27422Y13834D01*
G01X27468Y13425D01*
G01X27422Y13470D01*
G01X27286Y13515D01*
G01X27150Y13515D01*
G01X27013Y13470D01*
G01X26922Y13379D01*
G01X26877Y13243D01*
G01X26877Y13152D01*
G01X26922Y13015D01*
G01X27013Y12925D01*
G01X27150Y12879D01*
G01X27286Y12879D01*
G01X27422Y12925D01*
G01X27468Y12970D01*
G01X27513Y13061D01*
G01X28424Y10159D02*
G01X28424Y9204D01*
G01X28424Y10159D02*
G01X28015Y10159D01*
G01X27879Y10113D01*
G01X27833Y10068D01*
G01X27788Y9977D01*
G01X27788Y9886D01*
G01X27833Y9795D01*
G01X27879Y9750D01*
G01X28015Y9704D01*
G01X28424Y9704D01*
G01X28106Y9704D02*
G01X27788Y9204D01*
G01X26943Y10022D02*
G01X26988Y10113D01*
G01X27124Y10159D01*
G01X27215Y10159D01*
G01X27352Y10113D01*
G01X27443Y9977D01*
G01X27488Y9750D01*
G01X27488Y9522D01*
G01X27443Y9341D01*
G01X27352Y9250D01*
G01X27215Y9204D01*
G01X27170Y9204D01*
G01X27033Y9250D01*
G01X26943Y9341D01*
G01X26897Y9477D01*
G01X26897Y9522D01*
G01X26943Y9659D01*
G01X27033Y9750D01*
G01X27170Y9795D01*
G01X27215Y9795D01*
G01X27352Y9750D01*
G01X27443Y9659D01*
G01X27488Y9522D01*
G01X46759Y1674D02*
G01X46759Y719D01*
G01X46759Y1674D02*
G01X46350Y1674D01*
G01X46214Y1628D01*
G01X46168Y1583D01*
G01X46123Y1492D01*
G01X46123Y1401D01*
G01X46168Y1310D01*
G01X46214Y1265D01*
G01X46350Y1219D01*
G01X46759Y1219D01*
G01X46441Y1219D02*
G01X46123Y719D01*
G01X45187Y1674D02*
G01X45641Y719D01*
G01X45823Y1674D02*
G01X45187Y1674D01*
G01X40299Y9859D02*
G01X40299Y8904D01*
G01X40299Y9859D02*
G01X39890Y9859D01*
G01X39754Y9813D01*
G01X39708Y9768D01*
G01X39663Y9677D01*
G01X39663Y9586D01*
G01X39708Y9495D01*
G01X39754Y9449D01*
G01X39890Y9404D01*
G01X40299Y9404D01*
G01X39981Y9404D02*
G01X39663Y8904D01*
G01X39136Y9859D02*
G01X39272Y9813D01*
G01X39318Y9722D01*
G01X39318Y9631D01*
G01X39272Y9540D01*
G01X39181Y9495D01*
G01X38999Y9449D01*
G01X38863Y9404D01*
G01X38772Y9313D01*
G01X38727Y9222D01*
G01X38727Y9086D01*
G01X38772Y8995D01*
G01X38818Y8949D01*
G01X38954Y8904D01*
G01X39136Y8904D01*
G01X39272Y8949D01*
G01X39318Y8995D01*
G01X39363Y9086D01*
G01X39363Y9222D01*
G01X39318Y9313D01*
G01X39227Y9404D01*
G01X39090Y9449D01*
G01X38908Y9495D01*
G01X38818Y9540D01*
G01X38772Y9631D01*
G01X38772Y9722D01*
G01X38818Y9813D01*
G01X38954Y9859D01*
G01X39136Y9859D01*
G01X21390Y46100D02*
G01X22345Y46100D01*
G01X21390Y46100D02*
G01X21390Y45690D01*
G01X21436Y45554D01*
G01X21481Y45509D01*
G01X21572Y45463D01*
G01X21663Y45463D01*
G01X21754Y45509D01*
G01X21799Y45554D01*
G01X21845Y45690D01*
G01X21845Y46100D01*
G01X21845Y45781D02*
G01X22345Y45463D01*
G01X21708Y44572D02*
G01X21845Y44618D01*
G01X21936Y44709D01*
G01X21981Y44845D01*
G01X21981Y44890D01*
G01X21936Y45027D01*
G01X21845Y45118D01*
G01X21708Y45163D01*
G01X21663Y45163D01*
G01X21527Y45118D01*
G01X21436Y45027D01*
G01X21390Y44890D01*
G01X21390Y44845D01*
G01X21436Y44709D01*
G01X21527Y44618D01*
G01X21708Y44572D01*
G01X21936Y44572D01*
G01X22163Y44618D01*
G01X22299Y44709D01*
G01X22345Y44845D01*
G01X22345Y44936D01*
G01X22299Y45072D01*
G01X22208Y45118D01*
G01X24640Y46099D02*
G01X25595Y46099D01*
G01X24640Y46099D02*
G01X24640Y45690D01*
G01X24686Y45554D01*
G01X24731Y45509D01*
G01X24822Y45463D01*
G01X24913Y45463D01*
G01X25004Y45509D01*
G01X25049Y45554D01*
G01X25095Y45690D01*
G01X25095Y46099D01*
G01X25095Y45781D02*
G01X25595Y45463D01*
G01X24822Y45163D02*
G01X24777Y45072D01*
G01X24640Y44936D01*
G01X25595Y44936D01*
G01X24640Y44363D02*
G01X24686Y44499D01*
G01X24822Y44590D01*
G01X25049Y44636D01*
G01X25186Y44636D01*
G01X25413Y44590D01*
G01X25549Y44499D01*
G01X25595Y44363D01*
G01X25595Y44272D01*
G01X25549Y44136D01*
G01X25413Y44045D01*
G01X25186Y43999D01*
G01X25049Y43999D01*
G01X24822Y44045D01*
G01X24686Y44136D01*
G01X24640Y44272D01*
G01X24640Y44363D01*
G01X21959Y29264D02*
G01X21959Y28309D01*
G01X21959Y29264D02*
G01X21550Y29264D01*
G01X21414Y29218D01*
G01X21369Y29173D01*
G01X21323Y29082D01*
G01X21323Y28991D01*
G01X21369Y28900D01*
G01X21414Y28854D01*
G01X21550Y28809D01*
G01X21959Y28809D01*
G01X21641Y28809D02*
G01X21323Y28309D01*
G01X21023Y29082D02*
G01X20932Y29127D01*
G01X20796Y29264D01*
G01X20796Y28309D01*
G01X20041Y29264D02*
G01X20496Y28627D01*
G01X19814Y28627D01*
G01X20041Y29264D02*
G01X20041Y28309D01*
G01X19699Y20559D02*
G01X19699Y19604D01*
G01X19699Y20559D02*
G01X19290Y20559D01*
G01X19154Y20513D01*
G01X19109Y20468D01*
G01X19063Y20377D01*
G01X19063Y20286D01*
G01X19109Y20195D01*
G01X19154Y20149D01*
G01X19290Y20104D01*
G01X19699Y20104D01*
G01X19381Y20104D02*
G01X19063Y19604D01*
G01X18763Y20377D02*
G01X18672Y20422D01*
G01X18536Y20559D01*
G01X18536Y19604D01*
G01X17690Y20559D02*
G01X18145Y20559D01*
G01X18190Y20149D01*
G01X18145Y20195D01*
G01X18009Y20240D01*
G01X17872Y20240D01*
G01X17736Y20195D01*
G01X17645Y20104D01*
G01X17599Y19968D01*
G01X17599Y19877D01*
G01X17645Y19740D01*
G01X17736Y19649D01*
G01X17872Y19604D01*
G01X18009Y19604D01*
G01X18145Y19649D01*
G01X18190Y19695D01*
G01X18236Y19786D01*
G01X64299Y22109D02*
G01X64299Y21154D01*
G01X64299Y22109D02*
G01X63890Y22109D01*
G01X63754Y22063D01*
G01X63708Y22018D01*
G01X63663Y21927D01*
G01X63663Y21836D01*
G01X63708Y21745D01*
G01X63754Y21700D01*
G01X63890Y21654D01*
G01X64299Y21654D01*
G01X63981Y21654D02*
G01X63663Y21154D01*
G01X63318Y21881D02*
G01X63318Y21927D01*
G01X63272Y22018D01*
G01X63227Y22063D01*
G01X63136Y22109D01*
G01X62954Y22109D01*
G01X62863Y22063D01*
G01X62818Y22018D01*
G01X62772Y21927D01*
G01X62772Y21836D01*
G01X62818Y21745D01*
G01X62908Y21609D01*
G01X63363Y21154D01*
G01X62727Y21154D01*
G01X64274Y9234D02*
G01X64274Y8279D01*
G01X64274Y9234D02*
G01X63865Y9234D01*
G01X63729Y9188D01*
G01X63683Y9143D01*
G01X63638Y9052D01*
G01X63638Y8961D01*
G01X63683Y8870D01*
G01X63729Y8825D01*
G01X63865Y8779D01*
G01X64274Y8779D01*
G01X63956Y8779D02*
G01X63638Y8279D01*
G01X63338Y9052D02*
G01X63247Y9097D01*
G01X63111Y9234D01*
G01X63111Y8279D01*
G01X37549Y6434D02*
G01X37549Y5479D01*
G01X37549Y6434D02*
G01X37140Y6434D01*
G01X37004Y6388D01*
G01X36959Y6343D01*
G01X36913Y6252D01*
G01X36913Y6161D01*
G01X36959Y6070D01*
G01X37004Y6025D01*
G01X37140Y5979D01*
G01X37549Y5979D01*
G01X37231Y5979D02*
G01X36913Y5479D01*
G01X36613Y6252D02*
G01X36522Y6297D01*
G01X36386Y6434D01*
G01X36386Y5479D01*
G01X35995Y6434D02*
G01X35495Y6434D01*
G01X35768Y6070D01*
G01X35631Y6070D01*
G01X35540Y6025D01*
G01X35495Y5979D01*
G01X35449Y5843D01*
G01X35449Y5752D01*
G01X35495Y5615D01*
G01X35586Y5525D01*
G01X35722Y5479D01*
G01X35859Y5479D01*
G01X35995Y5525D01*
G01X36040Y5570D01*
G01X36086Y5661D01*
G01X34768Y29381D02*
G01X34813Y29472D01*
G01X34904Y29563D01*
G01X34995Y29609D01*
G01X35177Y29609D01*
G01X35268Y29563D01*
G01X35359Y29472D01*
G01X35404Y29381D01*
G01X35449Y29245D01*
G01X35449Y29018D01*
G01X35404Y28881D01*
G01X35359Y28790D01*
G01X35268Y28699D01*
G01X35177Y28654D01*
G01X34995Y28654D01*
G01X34904Y28699D01*
G01X34813Y28790D01*
G01X34768Y28881D01*
G01X34240Y29609D02*
G01X34377Y29563D01*
G01X34422Y29472D01*
G01X34422Y29381D01*
G01X34377Y29290D01*
G01X34286Y29245D01*
G01X34104Y29199D01*
G01X33968Y29154D01*
G01X33877Y29063D01*
G01X33831Y28972D01*
G01X33831Y28836D01*
G01X33877Y28745D01*
G01X33922Y28699D01*
G01X34059Y28654D01*
G01X34240Y28654D01*
G01X34377Y28699D01*
G01X34422Y28745D01*
G01X34468Y28836D01*
G01X34468Y28972D01*
G01X34422Y29063D01*
G01X34331Y29154D01*
G01X34195Y29199D01*
G01X34013Y29245D01*
G01X33922Y29290D01*
G01X33877Y29381D01*
G01X33877Y29472D01*
G01X33922Y29563D01*
G01X34059Y29609D01*
G01X34240Y29609D01*
G54D55*
G01X32924Y8909D02*
G01X32924Y7954D01*
G01X32924Y8909D02*
G01X32606Y8909D01*
G01X32470Y8863D01*
G01X32379Y8772D01*
G01X32334Y8681D01*
G01X32288Y8545D01*
G01X32288Y8318D01*
G01X32334Y8181D01*
G01X32379Y8090D01*
G01X32470Y8000D01*
G01X32606Y7954D01*
G01X32924Y7954D01*
G01X31988Y8727D02*
G01X31897Y8772D01*
G01X31761Y8909D01*
G01X31761Y7954D01*
G01X31370Y8909D02*
G01X30870Y8909D01*
G01X31143Y8545D01*
G01X31006Y8545D01*
G01X30915Y8500D01*
G01X30870Y8454D01*
G01X30824Y8318D01*
G01X30824Y8227D01*
G01X30870Y8090D01*
G01X30961Y8000D01*
G01X31097Y7954D01*
G01X31234Y7954D01*
G01X31370Y8000D01*
G01X31415Y8045D01*
G01X31461Y8136D01*
G54D56*
G01X58342Y21506D02*
G01X58388Y21597D01*
G01X58479Y21688D01*
G01X58570Y21734D01*
G01X58752Y21734D01*
G01X58842Y21688D01*
G01X58933Y21597D01*
G01X58979Y21506D01*
G01X59024Y21370D01*
G01X59024Y21143D01*
G01X58979Y21006D01*
G01X58933Y20915D01*
G01X58842Y20825D01*
G01X58752Y20779D01*
G01X58570Y20779D01*
G01X58479Y20825D01*
G01X58388Y20915D01*
G01X58342Y21006D01*
G01X57406Y21734D02*
G01X57861Y20779D01*
G01X58042Y21734D02*
G01X57406Y21734D01*
G01X33499Y21909D02*
G01X33499Y20954D01*
G01X33499Y21909D02*
G01X33090Y21909D01*
G01X32954Y21863D01*
G01X32909Y21818D01*
G01X32863Y21727D01*
G01X32863Y21636D01*
G01X32909Y21545D01*
G01X32954Y21500D01*
G01X33090Y21454D01*
G01X33499Y21454D01*
G01X33181Y21454D02*
G01X32863Y20954D01*
G01X32563Y21727D02*
G01X32472Y21772D01*
G01X32336Y21909D01*
G01X32336Y20954D01*
G01X32036Y21727D02*
G01X31945Y21772D01*
G01X31809Y21909D01*
G01X31809Y20954D01*
G01X30900Y20759D02*
G01X30900Y20077D01*
G01X30854Y19940D01*
G01X30763Y19849D01*
G01X30627Y19804D01*
G01X30536Y19804D01*
G01X30400Y19849D01*
G01X30309Y19940D01*
G01X30263Y20077D01*
G01X30263Y20759D01*
G01X29963Y20577D02*
G01X29872Y20622D01*
G01X29736Y20759D01*
G01X29736Y19804D01*
G01X53627Y9784D02*
G01X53718Y9738D01*
G01X53808Y9647D01*
G01X53854Y9556D01*
G01X53899Y9420D01*
G01X53899Y9193D01*
G01X53854Y9056D01*
G01X53808Y8965D01*
G01X53718Y8875D01*
G01X53627Y8829D01*
G01X53445Y8829D01*
G01X53354Y8875D01*
G01X53263Y8965D01*
G01X53218Y9056D01*
G01X53172Y9193D01*
G01X53172Y9420D01*
G01X53218Y9556D01*
G01X53263Y9647D01*
G01X53354Y9738D01*
G01X53445Y9784D01*
G01X53627Y9784D01*
G01X53490Y9011D02*
G01X53218Y8738D01*
G01X52872Y9602D02*
G01X52781Y9647D01*
G01X52645Y9784D01*
G01X52645Y8829D01*
G01X14049Y18829D02*
G01X14049Y17874D01*
G01X14049Y18829D02*
G01X13731Y18829D01*
G01X13595Y18783D01*
G01X13504Y18692D01*
G01X13458Y18601D01*
G01X13413Y18465D01*
G01X13413Y18238D01*
G01X13458Y18101D01*
G01X13504Y18010D01*
G01X13595Y17920D01*
G01X13731Y17874D01*
G01X14049Y17874D01*
G01X13022Y18829D02*
G01X12522Y18829D01*
G01X12795Y18465D01*
G01X12658Y18465D01*
G01X12568Y18420D01*
G01X12522Y18374D01*
G01X12477Y18238D01*
G01X12477Y18147D01*
G01X12522Y18010D01*
G01X12613Y17920D01*
G01X12749Y17874D01*
G01X12886Y17874D01*
G01X13022Y17920D01*
G01X13068Y17965D01*
G01X13113Y18056D01*
G01X16124Y18829D02*
G01X16124Y17874D01*
G01X16124Y18829D02*
G01X15806Y18829D01*
G01X15670Y18783D01*
G01X15579Y18692D01*
G01X15533Y18601D01*
G01X15488Y18465D01*
G01X15488Y18238D01*
G01X15533Y18101D01*
G01X15579Y18010D01*
G01X15670Y17920D01*
G01X15806Y17874D01*
G01X16124Y17874D01*
G01X14733Y18829D02*
G01X15188Y18192D01*
G01X14506Y18192D01*
G01X14733Y18829D02*
G01X14733Y17874D01*
G01X11674Y18834D02*
G01X11674Y17879D01*
G01X11674Y18834D02*
G01X11356Y18834D01*
G01X11220Y18788D01*
G01X11129Y18697D01*
G01X11084Y18606D01*
G01X11038Y18470D01*
G01X11038Y18243D01*
G01X11084Y18106D01*
G01X11129Y18015D01*
G01X11220Y17925D01*
G01X11356Y17879D01*
G01X11674Y17879D01*
G01X10738Y18652D02*
G01X10647Y18697D01*
G01X10511Y18834D01*
G01X10511Y17879D01*
G01X10165Y18606D02*
G01X10165Y18652D01*
G01X10120Y18743D01*
G01X10074Y18788D01*
G01X9984Y18834D01*
G01X9802Y18834D01*
G01X9711Y18788D01*
G01X9665Y18743D01*
G01X9620Y18652D01*
G01X9620Y18561D01*
G01X9665Y18470D01*
G01X9756Y18334D01*
G01X10211Y17879D01*
G01X9574Y17879D01*
G01X43299Y24059D02*
G01X42663Y23104D01*
G01X42663Y24059D02*
G01X43299Y23104D01*
G01X42363Y23877D02*
G01X42272Y23922D01*
G01X42136Y24059D01*
G01X42136Y23104D01*
G01X50168Y23181D02*
G01X50213Y23272D01*
G01X50304Y23363D01*
G01X50395Y23409D01*
G01X50577Y23409D01*
G01X50668Y23363D01*
G01X50758Y23272D01*
G01X50804Y23181D01*
G01X50849Y23045D01*
G01X50849Y22818D01*
G01X50804Y22681D01*
G01X50758Y22590D01*
G01X50668Y22500D01*
G01X50577Y22454D01*
G01X50395Y22454D01*
G01X50304Y22500D01*
G01X50213Y22590D01*
G01X50168Y22681D01*
G01X49413Y23409D02*
G01X49868Y22772D01*
G01X49186Y22772D01*
G01X49413Y23409D02*
G01X49413Y22454D01*
G01X59177Y5909D02*
G01X59267Y5863D01*
G01X59358Y5772D01*
G01X59404Y5681D01*
G01X59449Y5545D01*
G01X59449Y5318D01*
G01X59404Y5181D01*
G01X59358Y5091D01*
G01X59267Y5000D01*
G01X59177Y4954D01*
G01X58995Y4954D01*
G01X58904Y5000D01*
G01X58813Y5091D01*
G01X58767Y5181D01*
G01X58722Y5318D01*
G01X58722Y5545D01*
G01X58767Y5681D01*
G01X58813Y5772D01*
G01X58904Y5863D01*
G01X58995Y5909D01*
G01X59177Y5909D01*
G01X59040Y5136D02*
G01X58767Y4863D01*
G01X58377Y5681D02*
G01X58377Y5727D01*
G01X58331Y5818D01*
G01X58286Y5863D01*
G01X58195Y5909D01*
G01X58013Y5909D01*
G01X57922Y5863D01*
G01X57877Y5818D01*
G01X57831Y5727D01*
G01X57831Y5636D01*
G01X57877Y5545D01*
G01X57967Y5409D01*
G01X58422Y4954D01*
G01X57786Y4954D01*
G01X37168Y7956D02*
G01X37213Y8047D01*
G01X37304Y8138D01*
G01X37395Y8184D01*
G01X37577Y8184D01*
G01X37668Y8138D01*
G01X37759Y8047D01*
G01X37804Y7956D01*
G01X37849Y7820D01*
G01X37849Y7593D01*
G01X37804Y7456D01*
G01X37759Y7365D01*
G01X37668Y7275D01*
G01X37577Y7229D01*
G01X37395Y7229D01*
G01X37304Y7275D01*
G01X37213Y7365D01*
G01X37168Y7456D01*
G01X36868Y8002D02*
G01X36777Y8047D01*
G01X36640Y8184D01*
G01X36640Y7229D01*
G01X61068Y27881D02*
G01X61113Y27972D01*
G01X61204Y28063D01*
G01X61295Y28109D01*
G01X61477Y28109D01*
G01X61568Y28063D01*
G01X61658Y27972D01*
G01X61704Y27881D01*
G01X61749Y27745D01*
G01X61749Y27518D01*
G01X61704Y27381D01*
G01X61658Y27290D01*
G01X61568Y27200D01*
G01X61477Y27154D01*
G01X61295Y27154D01*
G01X61204Y27200D01*
G01X61113Y27290D01*
G01X61068Y27381D01*
G01X60222Y28109D02*
G01X60677Y28109D01*
G01X60722Y27700D01*
G01X60677Y27745D01*
G01X60540Y27790D01*
G01X60404Y27790D01*
G01X60268Y27745D01*
G01X60177Y27654D01*
G01X60131Y27518D01*
G01X60131Y27427D01*
G01X60177Y27290D01*
G01X60268Y27200D01*
G01X60404Y27154D01*
G01X60540Y27154D01*
G01X60677Y27200D01*
G01X60722Y27245D01*
G01X60768Y27336D01*
G01X7299Y19684D02*
G01X7299Y19002D01*
G01X7254Y18865D01*
G01X7163Y18775D01*
G01X7027Y18729D01*
G01X6936Y18729D01*
G01X6799Y18775D01*
G01X6709Y18865D01*
G01X6663Y19002D01*
G01X6663Y19684D01*
G01X6318Y19456D02*
G01X6318Y19502D01*
G01X6272Y19593D01*
G01X6227Y19638D01*
G01X6136Y19684D01*
G01X5954Y19684D01*
G01X5863Y19638D01*
G01X5818Y19593D01*
G01X5772Y19502D01*
G01X5772Y19411D01*
G01X5818Y19320D01*
G01X5909Y19184D01*
G01X6363Y18729D01*
G01X5727Y18729D01*
G01X35799Y18709D02*
G01X35799Y18027D01*
G01X35754Y17890D01*
G01X35663Y17800D01*
G01X35527Y17754D01*
G01X35436Y17754D01*
G01X35299Y17800D01*
G01X35209Y17890D01*
G01X35163Y18027D01*
G01X35163Y18709D01*
G01X34772Y18709D02*
G01X34272Y18709D01*
G01X34545Y18345D01*
G01X34409Y18345D01*
G01X34318Y18300D01*
G01X34272Y18254D01*
G01X34227Y18118D01*
G01X34227Y18027D01*
G01X34272Y17890D01*
G01X34363Y17800D01*
G01X34499Y17754D01*
G01X34636Y17754D01*
G01X34772Y17800D01*
G01X34818Y17845D01*
G01X34863Y17936D01*
G01X63799Y18109D02*
G01X63799Y17427D01*
G01X63754Y17290D01*
G01X63663Y17200D01*
G01X63527Y17154D01*
G01X63436Y17154D01*
G01X63299Y17200D01*
G01X63208Y17290D01*
G01X63163Y17427D01*
G01X63163Y18109D01*
G01X62408Y18109D02*
G01X62863Y17472D01*
G01X62181Y17472D01*
G01X62408Y18109D02*
G01X62408Y17154D01*
G01X60899Y9549D02*
G01X60899Y8594D01*
G01X60899Y9549D02*
G01X60581Y9549D01*
G01X60445Y9503D01*
G01X60354Y9412D01*
G01X60308Y9321D01*
G01X60263Y9185D01*
G01X60263Y8958D01*
G01X60308Y8821D01*
G01X60354Y8731D01*
G01X60445Y8640D01*
G01X60581Y8594D01*
G01X60899Y8594D01*
G01X59963Y9367D02*
G01X59872Y9412D01*
G01X59736Y9549D01*
G01X59736Y8594D01*
G01X20077Y18184D02*
G01X20168Y18138D01*
G01X20259Y18047D01*
G01X20304Y17956D01*
G01X20349Y17820D01*
G01X20349Y17593D01*
G01X20304Y17456D01*
G01X20259Y17365D01*
G01X20168Y17275D01*
G01X20077Y17229D01*
G01X19895Y17229D01*
G01X19804Y17275D01*
G01X19713Y17365D01*
G01X19668Y17456D01*
G01X19622Y17593D01*
G01X19622Y17820D01*
G01X19668Y17956D01*
G01X19713Y18047D01*
G01X19804Y18138D01*
G01X19895Y18184D01*
G01X20077Y18184D01*
G01X19940Y17411D02*
G01X19668Y17138D01*
G01X19231Y18184D02*
G01X18731Y18184D01*
G01X19004Y17820D01*
G01X18868Y17820D01*
G01X18777Y17775D01*
G01X18731Y17729D01*
G01X18686Y17593D01*
G01X18686Y17502D01*
G01X18731Y17365D01*
G01X18822Y17275D01*
G01X18959Y17229D01*
G01X19095Y17229D01*
G01X19231Y17275D01*
G01X19277Y17320D01*
G01X19322Y17411D01*
G01X20077Y11209D02*
G01X20168Y11163D01*
G01X20259Y11072D01*
G01X20304Y10981D01*
G01X20349Y10845D01*
G01X20349Y10618D01*
G01X20304Y10481D01*
G01X20259Y10390D01*
G01X20168Y10300D01*
G01X20077Y10254D01*
G01X19895Y10254D01*
G01X19804Y10300D01*
G01X19713Y10390D01*
G01X19668Y10481D01*
G01X19622Y10618D01*
G01X19622Y10845D01*
G01X19668Y10981D01*
G01X19713Y11072D01*
G01X19804Y11163D01*
G01X19895Y11209D01*
G01X20077Y11209D01*
G01X19940Y10436D02*
G01X19668Y10163D01*
G01X18868Y11209D02*
G01X19322Y10572D01*
G01X18640Y10572D01*
G01X18868Y11209D02*
G01X18868Y10254D01*
G01X25352Y5459D02*
G01X25443Y5413D01*
G01X25533Y5322D01*
G01X25579Y5231D01*
G01X25624Y5095D01*
G01X25624Y4868D01*
G01X25579Y4731D01*
G01X25533Y4640D01*
G01X25443Y4550D01*
G01X25352Y4504D01*
G01X25170Y4504D01*
G01X25079Y4550D01*
G01X24988Y4640D01*
G01X24943Y4731D01*
G01X24897Y4868D01*
G01X24897Y5095D01*
G01X24943Y5231D01*
G01X24988Y5322D01*
G01X25079Y5413D01*
G01X25170Y5459D01*
G01X25352Y5459D01*
G01X25215Y4686D02*
G01X24943Y4413D01*
G01X24052Y5459D02*
G01X24506Y5459D01*
G01X24552Y5050D01*
G01X24506Y5095D01*
G01X24370Y5140D01*
G01X24233Y5140D01*
G01X24097Y5095D01*
G01X24006Y5004D01*
G01X23961Y4868D01*
G01X23961Y4777D01*
G01X24006Y4640D01*
G01X24097Y4550D01*
G01X24233Y4504D01*
G01X24370Y4504D01*
G01X24506Y4550D01*
G01X24552Y4595D01*
G01X24597Y4686D01*
G01X20152Y14634D02*
G01X20243Y14588D01*
G01X20334Y14497D01*
G01X20379Y14406D01*
G01X20424Y14270D01*
G01X20424Y14043D01*
G01X20379Y13906D01*
G01X20334Y13815D01*
G01X20243Y13725D01*
G01X20152Y13679D01*
G01X19970Y13679D01*
G01X19879Y13725D01*
G01X19788Y13815D01*
G01X19743Y13906D01*
G01X19697Y14043D01*
G01X19697Y14270D01*
G01X19743Y14406D01*
G01X19788Y14497D01*
G01X19879Y14588D01*
G01X19970Y14634D01*
G01X20152Y14634D01*
G01X20015Y13861D02*
G01X19743Y13588D01*
G01X18852Y14497D02*
G01X18897Y14588D01*
G01X19034Y14634D01*
G01X19124Y14634D01*
G01X19261Y14588D01*
G01X19352Y14452D01*
G01X19397Y14225D01*
G01X19397Y13997D01*
G01X19352Y13815D01*
G01X19261Y13725D01*
G01X19124Y13679D01*
G01X19079Y13679D01*
G01X18943Y13725D01*
G01X18852Y13815D01*
G01X18806Y13952D01*
G01X18806Y13997D01*
G01X18852Y14134D01*
G01X18943Y14225D01*
G01X19079Y14270D01*
G01X19124Y14270D01*
G01X19261Y14225D01*
G01X19352Y14134D01*
G01X19397Y13997D01*
G01X20077Y9919D02*
G01X20168Y9873D01*
G01X20259Y9782D01*
G01X20304Y9691D01*
G01X20349Y9555D01*
G01X20349Y9328D01*
G01X20304Y9191D01*
G01X20259Y9100D01*
G01X20168Y9010D01*
G01X20077Y8964D01*
G01X19895Y8964D01*
G01X19804Y9010D01*
G01X19713Y9100D01*
G01X19668Y9191D01*
G01X19622Y9328D01*
G01X19622Y9555D01*
G01X19668Y9691D01*
G01X19713Y9782D01*
G01X19804Y9873D01*
G01X19895Y9919D01*
G01X20077Y9919D01*
G01X19940Y9146D02*
G01X19668Y8873D01*
G01X18686Y9919D02*
G01X19140Y8964D01*
G01X19322Y9919D02*
G01X18686Y9919D01*
G01X23377Y6509D02*
G01X23468Y6463D01*
G01X23559Y6372D01*
G01X23604Y6281D01*
G01X23649Y6145D01*
G01X23649Y5918D01*
G01X23604Y5781D01*
G01X23559Y5690D01*
G01X23468Y5600D01*
G01X23377Y5554D01*
G01X23195Y5554D01*
G01X23104Y5600D01*
G01X23013Y5690D01*
G01X22968Y5781D01*
G01X22922Y5918D01*
G01X22922Y6145D01*
G01X22968Y6281D01*
G01X23013Y6372D01*
G01X23104Y6463D01*
G01X23195Y6509D01*
G01X23377Y6509D01*
G01X23240Y5736D02*
G01X22968Y5463D01*
G01X22395Y6509D02*
G01X22531Y6463D01*
G01X22577Y6372D01*
G01X22577Y6281D01*
G01X22531Y6190D01*
G01X22440Y6145D01*
G01X22259Y6100D01*
G01X22122Y6054D01*
G01X22031Y5963D01*
G01X21986Y5872D01*
G01X21986Y5736D01*
G01X22031Y5645D01*
G01X22077Y5600D01*
G01X22213Y5554D01*
G01X22395Y5554D01*
G01X22531Y5600D01*
G01X22577Y5645D01*
G01X22622Y5736D01*
G01X22622Y5872D01*
G01X22577Y5963D01*
G01X22486Y6054D01*
G01X22349Y6100D01*
G01X22168Y6145D01*
G01X22077Y6190D01*
G01X22031Y6281D01*
G01X22031Y6372D01*
G01X22077Y6463D01*
G01X22213Y6509D01*
G01X22395Y6509D01*
G01X20927Y6409D02*
G01X21018Y6363D01*
G01X21108Y6272D01*
G01X21154Y6181D01*
G01X21199Y6045D01*
G01X21199Y5818D01*
G01X21154Y5681D01*
G01X21108Y5590D01*
G01X21018Y5500D01*
G01X20927Y5454D01*
G01X20745Y5454D01*
G01X20654Y5500D01*
G01X20563Y5590D01*
G01X20518Y5681D01*
G01X20472Y5818D01*
G01X20472Y6045D01*
G01X20518Y6181D01*
G01X20563Y6272D01*
G01X20654Y6363D01*
G01X20745Y6409D01*
G01X20927Y6409D01*
G01X20790Y5636D02*
G01X20518Y5363D01*
G01X19581Y6090D02*
G01X19627Y5954D01*
G01X19718Y5863D01*
G01X19854Y5818D01*
G01X19899Y5818D01*
G01X20036Y5863D01*
G01X20127Y5954D01*
G01X20172Y6090D01*
G01X20172Y6136D01*
G01X20127Y6272D01*
G01X20036Y6363D01*
G01X19899Y6409D01*
G01X19854Y6409D01*
G01X19718Y6363D01*
G01X19627Y6272D01*
G01X19581Y6090D01*
G01X19581Y5863D01*
G01X19627Y5636D01*
G01X19718Y5500D01*
G01X19854Y5454D01*
G01X19945Y5454D01*
G01X20081Y5500D01*
G01X20127Y5590D01*
G01X18327Y5509D02*
G01X18418Y5463D01*
G01X18509Y5372D01*
G01X18554Y5281D01*
G01X18599Y5145D01*
G01X18599Y4918D01*
G01X18554Y4781D01*
G01X18509Y4691D01*
G01X18418Y4600D01*
G01X18327Y4554D01*
G01X18145Y4554D01*
G01X18054Y4600D01*
G01X17963Y4691D01*
G01X17918Y4781D01*
G01X17872Y4918D01*
G01X17872Y5145D01*
G01X17918Y5281D01*
G01X17963Y5372D01*
G01X18054Y5463D01*
G01X18145Y5509D01*
G01X18327Y5509D01*
G01X18190Y4736D02*
G01X17918Y4463D01*
G01X17572Y5327D02*
G01X17481Y5372D01*
G01X17345Y5509D01*
G01X17345Y4554D01*
G01X16772Y5509D02*
G01X16909Y5463D01*
G01X16999Y5327D01*
G01X17045Y5100D01*
G01X17045Y4963D01*
G01X16999Y4736D01*
G01X16909Y4600D01*
G01X16772Y4554D01*
G01X16681Y4554D01*
G01X16545Y4600D01*
G01X16454Y4736D01*
G01X16409Y4963D01*
G01X16409Y5100D01*
G01X16454Y5327D01*
G01X16545Y5463D01*
G01X16681Y5509D01*
G01X16772Y5509D01*
G01X14577Y5509D02*
G01X14668Y5463D01*
G01X14758Y5372D01*
G01X14804Y5282D01*
G01X14849Y5145D01*
G01X14849Y4918D01*
G01X14804Y4782D01*
G01X14758Y4691D01*
G01X14668Y4600D01*
G01X14577Y4554D01*
G01X14395Y4554D01*
G01X14304Y4600D01*
G01X14213Y4691D01*
G01X14168Y4782D01*
G01X14122Y4918D01*
G01X14122Y5145D01*
G01X14168Y5282D01*
G01X14213Y5372D01*
G01X14304Y5463D01*
G01X14395Y5509D01*
G01X14577Y5509D01*
G01X14440Y4736D02*
G01X14168Y4463D01*
G01X13822Y5327D02*
G01X13731Y5372D01*
G01X13595Y5509D01*
G01X13595Y4554D01*
G01X13295Y5327D02*
G01X13204Y5372D01*
G01X13068Y5509D01*
G01X13068Y4554D01*
G01X7877Y5409D02*
G01X7968Y5363D01*
G01X8059Y5272D01*
G01X8104Y5181D01*
G01X8149Y5045D01*
G01X8149Y4818D01*
G01X8104Y4681D01*
G01X8059Y4590D01*
G01X7968Y4499D01*
G01X7877Y4454D01*
G01X7695Y4454D01*
G01X7604Y4499D01*
G01X7513Y4590D01*
G01X7468Y4681D01*
G01X7422Y4818D01*
G01X7422Y5045D01*
G01X7468Y5181D01*
G01X7513Y5272D01*
G01X7604Y5363D01*
G01X7695Y5409D01*
G01X7877Y5409D01*
G01X7740Y4636D02*
G01X7468Y4363D01*
G01X7122Y5227D02*
G01X7031Y5272D01*
G01X6895Y5409D01*
G01X6895Y4454D01*
G01X6549Y5181D02*
G01X6549Y5227D01*
G01X6504Y5318D01*
G01X6459Y5363D01*
G01X6368Y5409D01*
G01X6186Y5409D01*
G01X6095Y5363D01*
G01X6049Y5318D01*
G01X6004Y5227D01*
G01X6004Y5136D01*
G01X6049Y5045D01*
G01X6140Y4909D01*
G01X6595Y4454D01*
G01X5959Y4454D01*
G01X37003Y21631D02*
G01X37048Y21722D01*
G01X37139Y21813D01*
G01X37230Y21859D01*
G01X37412Y21859D01*
G01X37503Y21813D01*
G01X37593Y21722D01*
G01X37639Y21631D01*
G01X37684Y21495D01*
G01X37684Y21268D01*
G01X37639Y21131D01*
G01X37593Y21041D01*
G01X37503Y20950D01*
G01X37412Y20904D01*
G01X37230Y20904D01*
G01X37139Y20950D01*
G01X37048Y21041D01*
G01X37003Y21131D01*
G01X36657Y21631D02*
G01X36657Y21677D01*
G01X36612Y21768D01*
G01X36566Y21813D01*
G01X36475Y21859D01*
G01X36293Y21859D01*
G01X36203Y21813D01*
G01X36157Y21768D01*
G01X36112Y21677D01*
G01X36112Y21586D01*
G01X36157Y21495D01*
G01X36248Y21359D01*
G01X36703Y20904D01*
G01X36066Y20904D01*
G01X37468Y29381D02*
G01X37513Y29472D01*
G01X37604Y29563D01*
G01X37695Y29609D01*
G01X37877Y29609D01*
G01X37968Y29563D01*
G01X38058Y29472D01*
G01X38104Y29381D01*
G01X38149Y29245D01*
G01X38149Y29018D01*
G01X38104Y28881D01*
G01X38058Y28790D01*
G01X37968Y28700D01*
G01X37877Y28654D01*
G01X37695Y28654D01*
G01X37604Y28700D01*
G01X37513Y28790D01*
G01X37468Y28881D01*
G01X37077Y29609D02*
G01X36577Y29609D01*
G01X36849Y29245D01*
G01X36713Y29245D01*
G01X36622Y29200D01*
G01X36577Y29154D01*
G01X36531Y29018D01*
G01X36531Y28927D01*
G01X36577Y28790D01*
G01X36668Y28700D01*
G01X36804Y28654D01*
G01X36940Y28654D01*
G01X37077Y28700D01*
G01X37122Y28745D01*
G01X37168Y28836D01*
G01X23598Y46851D02*
G01X23643Y46942D01*
G01X23734Y47033D01*
G01X23825Y47079D01*
G01X24007Y47079D01*
G01X24098Y47033D01*
G01X24188Y46942D01*
G01X24234Y46851D01*
G01X24279Y46715D01*
G01X24279Y46488D01*
G01X24234Y46351D01*
G01X24188Y46260D01*
G01X24098Y46170D01*
G01X24007Y46124D01*
G01X23825Y46124D01*
G01X23734Y46170D01*
G01X23643Y46260D01*
G01X23598Y46351D01*
G01X22752Y46942D02*
G01X22798Y47033D01*
G01X22934Y47079D01*
G01X23025Y47079D01*
G01X23161Y47033D01*
G01X23252Y46897D01*
G01X23298Y46670D01*
G01X23298Y46442D01*
G01X23252Y46260D01*
G01X23161Y46170D01*
G01X23025Y46124D01*
G01X22979Y46124D01*
G01X22843Y46170D01*
G01X22752Y46260D01*
G01X22707Y46397D01*
G01X22707Y46442D01*
G01X22752Y46579D01*
G01X22843Y46670D01*
G01X22979Y46715D01*
G01X23025Y46715D01*
G01X23161Y46670D01*
G01X23252Y46579D01*
G01X23298Y46442D01*
G01X13893Y26556D02*
G01X13938Y26647D01*
G01X14029Y26738D01*
G01X14120Y26784D01*
G01X14302Y26784D01*
G01X14393Y26738D01*
G01X14484Y26647D01*
G01X14529Y26556D01*
G01X14574Y26420D01*
G01X14574Y26193D01*
G01X14529Y26056D01*
G01X14484Y25965D01*
G01X14393Y25875D01*
G01X14302Y25829D01*
G01X14120Y25829D01*
G01X14029Y25875D01*
G01X13938Y25965D01*
G01X13893Y26056D01*
G01X13002Y26465D02*
G01X13047Y26329D01*
G01X13138Y26238D01*
G01X13274Y26193D01*
G01X13320Y26193D01*
G01X13456Y26238D01*
G01X13547Y26329D01*
G01X13593Y26465D01*
G01X13593Y26511D01*
G01X13547Y26647D01*
G01X13456Y26738D01*
G01X13320Y26784D01*
G01X13274Y26784D01*
G01X13138Y26738D01*
G01X13047Y26647D01*
G01X13002Y26465D01*
G01X13002Y26238D01*
G01X13047Y26011D01*
G01X13138Y25875D01*
G01X13274Y25829D01*
G01X13365Y25829D01*
G01X13502Y25875D01*
G01X13547Y25965D01*
G01X19252Y29284D02*
G01X19343Y29238D01*
G01X19434Y29147D01*
G01X19479Y29056D01*
G01X19524Y28920D01*
G01X19524Y28693D01*
G01X19479Y28556D01*
G01X19434Y28465D01*
G01X19343Y28375D01*
G01X19252Y28329D01*
G01X19070Y28329D01*
G01X18979Y28375D01*
G01X18888Y28465D01*
G01X18843Y28556D01*
G01X18797Y28693D01*
G01X18797Y28920D01*
G01X18843Y29056D01*
G01X18888Y29147D01*
G01X18979Y29238D01*
G01X19070Y29284D01*
G01X19252Y29284D01*
G01X19115Y28511D02*
G01X18843Y28238D01*
G01X18497Y29102D02*
G01X18406Y29147D01*
G01X18270Y29284D01*
G01X18270Y28329D01*
G01X17879Y29284D02*
G01X17379Y29284D01*
G01X17652Y28920D01*
G01X17515Y28920D01*
G01X17424Y28874D01*
G01X17379Y28829D01*
G01X17334Y28693D01*
G01X17334Y28602D01*
G01X17379Y28465D01*
G01X17470Y28375D01*
G01X17606Y28329D01*
G01X17743Y28329D01*
G01X17879Y28375D01*
G01X17924Y28420D01*
G01X17970Y28511D01*
G01X51549Y11134D02*
G01X51549Y10179D01*
G01X51549Y11134D02*
G01X51231Y11134D01*
G01X51095Y11088D01*
G01X51004Y10997D01*
G01X50958Y10906D01*
G01X50913Y10770D01*
G01X50913Y10543D01*
G01X50958Y10406D01*
G01X51004Y10315D01*
G01X51095Y10225D01*
G01X51231Y10179D01*
G01X51549Y10179D01*
G01X50568Y10906D02*
G01X50568Y10952D01*
G01X50522Y11043D01*
G01X50477Y11088D01*
G01X50386Y11134D01*
G01X50204Y11134D01*
G01X50113Y11088D01*
G01X50068Y11043D01*
G01X50022Y10952D01*
G01X50022Y10861D01*
G01X50068Y10770D01*
G01X50158Y10634D01*
G01X50613Y10179D01*
G01X49977Y10179D01*
G01X56762Y18603D02*
G01X56853Y18557D01*
G01X56942Y18468D01*
G01X56988Y18377D01*
G01X57034Y18240D01*
G01X57034Y18014D01*
G01X56988Y17877D01*
G01X56942Y17785D01*
G01X56853Y17694D01*
G01X56762Y17648D01*
G01X56579Y17648D01*
G01X56490Y17694D01*
G01X56399Y17785D01*
G01X56353Y17877D01*
G01X56307Y18014D01*
G01X56307Y18240D01*
G01X56353Y18377D01*
G01X56399Y18468D01*
G01X56490Y18557D01*
G01X56579Y18603D01*
G01X56762Y18603D01*
G01X56625Y17831D02*
G01X56353Y17559D01*
G01X56008Y18423D02*
G01X55916Y18468D01*
G01X55779Y18603D01*
G01X55779Y17648D01*
G01X55025Y18603D02*
G01X55479Y17968D01*
G01X54799Y17968D01*
G01X55025Y18603D02*
G01X55025Y17648D01*
G54D55*
G01X24868Y37568D02*
G01X24777Y37613D01*
G01X24686Y37704D01*
G01X24640Y37795D01*
G01X24640Y37977D01*
G01X24686Y38068D01*
G01X24777Y38158D01*
G01X24868Y38204D01*
G01X25004Y38249D01*
G01X25231Y38249D01*
G01X25368Y38204D01*
G01X25458Y38158D01*
G01X25549Y38068D01*
G01X25595Y37977D01*
G01X25595Y37795D01*
G01X25549Y37704D01*
G01X25458Y37613D01*
G01X25368Y37568D01*
G01X24822Y37268D02*
G01X24777Y37177D01*
G01X24640Y37040D01*
G01X25595Y37040D01*
G01X24640Y36468D02*
G01X24686Y36604D01*
G01X24822Y36695D01*
G01X25049Y36740D01*
G01X25186Y36740D01*
G01X25413Y36695D01*
G01X25549Y36604D01*
G01X25595Y36468D01*
G01X25595Y36377D01*
G01X25549Y36240D01*
G01X25413Y36149D01*
G01X25186Y36104D01*
G01X25049Y36104D01*
G01X24822Y36149D01*
G01X24686Y36240D01*
G01X24640Y36377D01*
G01X24640Y36468D01*
G54D56*
G01X8399Y22609D02*
G01X8399Y21654D01*
G01X8399Y22609D02*
G01X7990Y22609D01*
G01X7854Y22563D01*
G01X7809Y22518D01*
G01X7763Y22427D01*
G01X7763Y22336D01*
G01X7809Y22245D01*
G01X7854Y22200D01*
G01X7990Y22154D01*
G01X8399Y22154D01*
G01X8081Y22154D02*
G01X7763Y21654D01*
G01X7463Y22427D02*
G01X7372Y22472D01*
G01X7236Y22609D01*
G01X7236Y21654D01*
G01X6709Y22609D02*
G01X6845Y22563D01*
G01X6890Y22472D01*
G01X6890Y22381D01*
G01X6845Y22290D01*
G01X6754Y22245D01*
G01X6572Y22200D01*
G01X6436Y22154D01*
G01X6345Y22063D01*
G01X6299Y21972D01*
G01X6299Y21836D01*
G01X6345Y21745D01*
G01X6390Y21700D01*
G01X6527Y21654D01*
G01X6709Y21654D01*
G01X6845Y21700D01*
G01X6890Y21745D01*
G01X6936Y21836D01*
G01X6936Y21972D01*
G01X6890Y22063D01*
G01X6799Y22154D01*
G01X6663Y22200D01*
G01X6481Y22245D01*
G01X6390Y22290D01*
G01X6345Y22381D01*
G01X6345Y22472D01*
G01X6390Y22563D01*
G01X6527Y22609D01*
G01X6709Y22609D01*
G01X40650Y21859D02*
G01X40650Y20904D01*
G01X40650Y21859D02*
G01X40241Y21859D01*
G01X40104Y21813D01*
G01X40059Y21768D01*
G01X40013Y21677D01*
G01X40013Y21586D01*
G01X40059Y21495D01*
G01X40104Y21450D01*
G01X40241Y21404D01*
G01X40650Y21404D01*
G01X40331Y21404D02*
G01X40013Y20904D01*
G01X39713Y21677D02*
G01X39622Y21722D01*
G01X39486Y21859D01*
G01X39486Y20904D01*
G01X38595Y21540D02*
G01X38641Y21404D01*
G01X38731Y21313D01*
G01X38868Y21268D01*
G01X38913Y21268D01*
G01X39050Y21313D01*
G01X39141Y21404D01*
G01X39186Y21540D01*
G01X39186Y21586D01*
G01X39141Y21722D01*
G01X39050Y21813D01*
G01X38913Y21859D01*
G01X38868Y21859D01*
G01X38731Y21813D01*
G01X38641Y21722D01*
G01X38595Y21540D01*
G01X38595Y21313D01*
G01X38641Y21086D01*
G01X38731Y20950D01*
G01X38868Y20904D01*
G01X38959Y20904D01*
G01X39095Y20950D01*
G01X39141Y21040D01*
G01X56449Y21729D02*
G01X56449Y20774D01*
G01X56449Y21729D02*
G01X56040Y21729D01*
G01X55904Y21683D01*
G01X55858Y21638D01*
G01X55813Y21547D01*
G01X55813Y21456D01*
G01X55858Y21365D01*
G01X55904Y21319D01*
G01X56040Y21274D01*
G01X56449Y21274D01*
G01X56131Y21274D02*
G01X55813Y20774D01*
G01X55468Y21501D02*
G01X55468Y21547D01*
G01X55422Y21638D01*
G01X55377Y21683D01*
G01X55286Y21729D01*
G01X55104Y21729D01*
G01X55013Y21683D01*
G01X54968Y21638D01*
G01X54922Y21547D01*
G01X54922Y21456D01*
G01X54968Y21365D01*
G01X55058Y21229D01*
G01X55513Y20774D01*
G01X54877Y20774D01*
G01X54304Y21729D02*
G01X54440Y21683D01*
G01X54531Y21547D01*
G01X54577Y21319D01*
G01X54577Y21183D01*
G01X54531Y20956D01*
G01X54440Y20819D01*
G01X54304Y20774D01*
G01X54213Y20774D01*
G01X54077Y20819D01*
G01X53986Y20956D01*
G01X53940Y21183D01*
G01X53940Y21319D01*
G01X53986Y21547D01*
G01X54077Y21683D01*
G01X54213Y21729D01*
G01X54304Y21729D01*
G54D51*
G75*
G01X33250Y25900D02*
G03X33450Y26100I0J200D01*
G01*
G75*
G01X32050Y25900D02*
G02X31850Y26100I0J200D01*
G01*
G75*
G01X33250Y29200D02*
G02X33450Y29000I0J-200D01*
G01*
G75*
G01X32050Y29200D02*
G03X31850Y29000I0J-200D01*
G01*
G75*
G01X30900Y24441D02*
G02X30900Y25508I0J534D01*
G01*
G75*
G01X41880Y8100D02*
G03X41660Y8320I-220J0D01*
G01*
G75*
G01X38320Y8100D02*
G02X38540Y8320I220J0D01*
G01*
G75*
G01X41880Y1900D02*
G02X41660Y1680I-220J0D01*
G01*
G75*
G01X38320Y1900D02*
G03X38540Y1680I220J0D01*
G01*
G75*
G01X60350Y26650D02*
G03X60150Y26450I0J-200D01*
G01*
G75*
G01X61550Y26650D02*
G02X61750Y26450I0J-200D01*
G01*
G75*
G01X60350Y23350D02*
G02X60150Y23550I0J200D01*
G01*
G75*
G01X61550Y23350D02*
G03X61750Y23550I0J200D01*
G01*
G54D28*
G75*
G01X1769Y20099D02*
G02X1769Y20097I200J-1D01*
G01*
G54D26*
G75*
G01X1827Y20107D02*
G02X1827Y20104I150J-1D01*
G01*
G54D28*
G75*
G01X34101Y13769D02*
G02X34103Y13769I1J200D01*
G01*
G54D26*
G75*
G01X34093Y13827D02*
G02X34096Y13827I1J150D01*
G01*
G54D28*
G75*
G01X64769Y16199D02*
G02X64769Y16197I200J-1D01*
G01*
G54D26*
G75*
G01X64827Y16207D02*
G02X64827Y16204I150J-1D01*
G01*
G54D51*
G75*
G01X39000Y29200D02*
G03X38800Y29000I0J-200D01*
G01*
G75*
G01X40200Y29200D02*
G02X40400Y29000I0J-200D01*
G01*
G75*
G01X39000Y25900D02*
G02X38800Y26100I0J200D01*
G01*
G75*
G01X40200Y25900D02*
G03X40400Y26100I0J200D01*
G01*
G75*
G01X25150Y49150D02*
G03X24950Y49350I-200J0D01*
G01*
G75*
G01X25150Y47950D02*
G02X24950Y47750I-200J0D01*
G01*
G75*
G01X21850Y49150D02*
G02X22050Y49350I200J0D01*
G01*
G75*
G01X21850Y47950D02*
G03X22050Y47750I200J0D01*
G01*
G75*
G01X13550Y27500D02*
G03X13750Y27300I200J0D01*
G01*
G75*
G01X13550Y28700D02*
G02X13750Y28900I200J0D01*
G01*
G75*
G01X16850Y27500D02*
G02X16650Y27300I-200J0D01*
G01*
G75*
G01X16850Y28700D02*
G03X16650Y28900I-200J0D01*
G01*
G75*
G01X25125Y32410D02*
G03X25325Y32610I0J200D01*
G01*
G75*
G01X23925Y32410D02*
G02X23725Y32610I0J200D01*
G01*
G75*
G01X25125Y35710D02*
G02X25325Y35510I0J-200D01*
G01*
G75*
G01X23925Y35710D02*
G03X23725Y35510I0J-200D01*
G01*
G75*
G01X11350Y7100D02*
G03X11350Y7100I-850J0D01*
G01*
G75*
G01X21896Y58419D02*
G03X21896Y58419I-75J0D01*
G01*
G75*
G01X56301Y8810D02*
G03X56301Y8810I-296J0D01*
G01*
G54D54*
G75*
G01X17282Y27140D02*
G03X17282Y27140I-72J0D01*
G01*
G54D26*
G75*
G01X13500Y12200D02*
G03X13500Y12200I-500J0D01*
G01*
G54D11*
G75*
G01X13225Y29350D02*
G03X13225Y29350I-200J0D01*
G01*
G36*
G01X51449Y22849D02*
G01X54699Y22849D01*
G01X54699Y22399D01*
G01X51449Y22399D01*
G01X51449Y22849D01*
G37*
G36*
G01X55850Y22849D02*
G01X59049Y22849D01*
G01X59049Y22399D01*
G01X55850Y22399D01*
G01X55850Y22849D01*
G37*
G36*
G01X34450Y22800D02*
G01X37749Y22800D01*
G01X37749Y22400D01*
G01X34450Y22400D01*
G01X34450Y22800D01*
G37*

%LPD*%
G36*
G01X56299Y8750D02*
G01X56149Y9050D01*
G01X55849Y9000D01*
G01X55749Y8800D01*
G01X55849Y8600D01*
G01X56099Y8600D01*
G01X56299Y8750D01*
G37*

%LPD*%
G36*
G01X17174Y27124D02*
G01X17174Y27199D01*
G01X17149Y27175D01*
G01X17149Y27149D01*
G01X17224Y27075D01*
G01X17174Y27124D01*
G37*

%LPD*%
G36*
G01X17274Y27149D02*
G01X17149Y27175D01*
G01X17149Y27124D01*
G01X17174Y27099D01*
G01X17224Y27099D01*
G01X17274Y27149D01*
G37*

%LPD*%
G36*
G01X13149Y29549D02*
G01X12949Y29549D01*
G01X12824Y29424D01*
G01X12824Y29399D01*
G01X12949Y29174D01*
G01X13050Y29199D01*
G01X13174Y29249D01*
G01X13174Y29524D01*
G01X13149Y29549D01*
G37*
M00*
M02*
