G04 Layer: TopSilkLayer*
G04 EasyEDA v6.4.5, 2020-08-30T10:48:13+03:00*
G04 413a31d708cc4da382682e4194c4ac02,19ad15c176e44a5d96a851d9d78d95a1,10*
G04 Gerber Generator version 0.2*
G04 Scale: 100 percent, Rotated: No, Reflected: No *
G04 Dimensions in millimeters *
G04 leading zeros omitted , absolute positions ,3 integer and 3 decimal *
%FSLAX33Y33*%
%MOMM*%
G90*
G71D02*

%ADD11C,0.200000*%
%ADD12C,0.250012*%
%ADD26C,0.299999*%
%ADD51C,0.254000*%
%ADD52C,0.101600*%
%ADD53C,0.203200*%

%LPD*%

%LPD*%
G36*
G01X31844Y39214D02*
G01X31418Y39214D01*
G01X31418Y38940D01*
G01X31844Y38940D01*
G01X31844Y39214D01*
G37*

%LPD*%
G36*
G01X31844Y38666D02*
G01X31418Y38666D01*
G01X31418Y38392D01*
G01X31844Y38392D01*
G01X31844Y38666D01*
G37*

%LPD*%
G36*
G01X31844Y38118D02*
G01X31418Y38118D01*
G01X31418Y37845D01*
G01X31844Y37845D01*
G01X31844Y38118D01*
G37*

%LPD*%
G36*
G01X30861Y39746D02*
G01X30429Y39765D01*
G01X30300Y39699D01*
G01X30246Y39669D01*
G01X30196Y39634D01*
G01X30147Y39594D01*
G01X30103Y39550D01*
G01X30061Y39502D01*
G01X30025Y39452D01*
G01X29994Y39399D01*
G01X29967Y39344D01*
G01X29926Y39247D01*
G01X29926Y37571D01*
G01X29825Y37438D01*
G01X29794Y37395D01*
G01X29766Y37350D01*
G01X29741Y37305D01*
G01X29720Y37258D01*
G01X29702Y37211D01*
G01X29687Y37161D01*
G01X29674Y37109D01*
G01X29665Y37056D01*
G01X29659Y37000D01*
G01X29656Y36942D01*
G01X29655Y36882D01*
G01X29658Y36818D01*
G01X29663Y36757D01*
G01X29671Y36698D01*
G01X29682Y36642D01*
G01X29696Y36587D01*
G01X29714Y36534D01*
G01X29735Y36483D01*
G01X29759Y36434D01*
G01X29787Y36386D01*
G01X29818Y36339D01*
G01X29853Y36293D01*
G01X29891Y36248D01*
G01X29934Y36204D01*
G01X29980Y36161D01*
G01X30026Y36121D01*
G01X30073Y36086D01*
G01X30120Y36055D01*
G01X30168Y36027D01*
G01X30218Y36004D01*
G01X30269Y35984D01*
G01X30323Y35967D01*
G01X30378Y35954D01*
G01X30437Y35944D01*
G01X30500Y35936D01*
G01X30566Y35932D01*
G01X30794Y35921D01*
G01X30966Y35986D01*
G01X31023Y36010D01*
G01X31079Y36040D01*
G01X31135Y36075D01*
G01X31189Y36114D01*
G01X31241Y36157D01*
G01X31291Y36204D01*
G01X31338Y36253D01*
G01X31381Y36305D01*
G01X31420Y36358D01*
G01X31455Y36413D01*
G01X31484Y36469D01*
G01X31508Y36525D01*
G01X31528Y36583D01*
G01X31544Y36643D01*
G01X31556Y36704D01*
G01X31565Y36765D01*
G01X31570Y36827D01*
G01X31571Y36889D01*
G01X31569Y36950D01*
G01X31563Y37011D01*
G01X31554Y37072D01*
G01X31541Y37131D01*
G01X31525Y37189D01*
G01X31506Y37245D01*
G01X31483Y37299D01*
G01X31457Y37351D01*
G01X31427Y37400D01*
G01X31394Y37447D01*
G01X31312Y37555D01*
G01X31296Y38440D01*
G01X31281Y39325D01*
G01X31197Y39452D01*
G01X31155Y39508D01*
G01X31101Y39566D01*
G01X31042Y39620D01*
G01X30986Y39662D01*
G01X30861Y39746D01*
G37*

%LPC*%
G36*
G01X30651Y39471D02*
G01X30590Y39472D01*
G01X30530Y39464D01*
G01X30472Y39447D01*
G01X30418Y39422D01*
G01X30368Y39389D01*
G01X30323Y39349D01*
G01X30284Y39301D01*
G01X30253Y39247D01*
G01X30231Y39186D01*
G01X30228Y39170D01*
G01X30225Y39148D01*
G01X30222Y39117D01*
G01X30219Y39079D01*
G01X30217Y39035D01*
G01X30214Y38986D01*
G01X30212Y38930D01*
G01X30210Y38870D01*
G01X30208Y38805D01*
G01X30206Y38736D01*
G01X30204Y38663D01*
G01X30203Y38588D01*
G01X30202Y38510D01*
G01X30201Y38429D01*
G01X30201Y37449D01*
G01X30096Y37313D01*
G01X30060Y37261D01*
G01X30028Y37207D01*
G01X30002Y37153D01*
G01X29981Y37097D01*
G01X29964Y37041D01*
G01X29953Y36984D01*
G01X29946Y36928D01*
G01X29945Y36871D01*
G01X29948Y36815D01*
G01X29955Y36759D01*
G01X29967Y36705D01*
G01X29985Y36652D01*
G01X30006Y36600D01*
G01X30032Y36550D01*
G01X30063Y36502D01*
G01X30097Y36457D01*
G01X30137Y36414D01*
G01X30181Y36374D01*
G01X30229Y36337D01*
G01X30281Y36303D01*
G01X30423Y36220D01*
G01X30800Y36220D01*
G01X30944Y36304D01*
G01X30997Y36338D01*
G01X31045Y36376D01*
G01X31089Y36417D01*
G01X31128Y36460D01*
G01X31163Y36507D01*
G01X31194Y36556D01*
G01X31220Y36607D01*
G01X31241Y36659D01*
G01X31258Y36714D01*
G01X31269Y36769D01*
G01X31277Y36825D01*
G01X31279Y36882D01*
G01X31276Y36940D01*
G01X31268Y36997D01*
G01X31256Y37055D01*
G01X31238Y37111D01*
G01X31216Y37167D01*
G01X31188Y37222D01*
G01X31155Y37276D01*
G01X31117Y37327D01*
G01X31026Y37441D01*
G01X31007Y39201D01*
G01X30953Y39284D01*
G01X30927Y39319D01*
G01X30896Y39354D01*
G01X30863Y39385D01*
G01X30832Y39409D01*
G01X30773Y39439D01*
G01X30713Y39460D01*
G01X30651Y39471D01*
G37*

%LPD*%
G36*
G01X30748Y38666D02*
G01X30474Y38666D01*
G01X30474Y37276D01*
G01X30398Y37241D01*
G01X30355Y37216D01*
G01X30317Y37183D01*
G01X30284Y37143D01*
G01X30256Y37098D01*
G01X30234Y37047D01*
G01X30218Y36994D01*
G01X30208Y36938D01*
G01X30204Y36881D01*
G01X30207Y36824D01*
G01X30217Y36769D01*
G01X30235Y36716D01*
G01X30260Y36666D01*
G01X30292Y36622D01*
G01X30328Y36583D01*
G01X30369Y36550D01*
G01X30414Y36523D01*
G01X30464Y36502D01*
G01X30519Y36487D01*
G01X30578Y36478D01*
G01X30641Y36474D01*
G01X30780Y36474D01*
G01X30889Y36576D01*
G01X31000Y36676D01*
G01X31014Y36829D01*
G01X31017Y36896D01*
G01X31013Y36959D01*
G01X31001Y37017D01*
G01X30982Y37071D01*
G01X30956Y37119D01*
G01X30923Y37162D01*
G01X30884Y37199D01*
G01X30838Y37230D01*
G01X30749Y37281D01*
G01X30749Y37974D01*
G01X30748Y38666D01*
G37*

%LPD*%
G36*
G01X33169Y37466D02*
G01X33096Y37479D01*
G01X33051Y37471D01*
G01X33000Y37445D01*
G01X32942Y37401D01*
G01X32874Y37335D01*
G01X32864Y37324D01*
G01X32850Y37309D01*
G01X32833Y37290D01*
G01X32812Y37268D01*
G01X32788Y37242D01*
G01X32761Y37212D01*
G01X32731Y37178D01*
G01X32698Y37141D01*
G01X32662Y37101D01*
G01X32623Y37059D01*
G01X32582Y37012D01*
G01X32538Y36964D01*
G01X32492Y36913D01*
G01X32444Y36859D01*
G01X32394Y36803D01*
G01X32341Y36744D01*
G01X32287Y36684D01*
G01X32231Y36621D01*
G01X32174Y36557D01*
G01X32115Y36491D01*
G01X32054Y36424D01*
G01X31993Y36355D01*
G01X31867Y36213D01*
G01X31737Y36067D01*
G01X31671Y35993D01*
G01X31605Y35918D01*
G01X30474Y34647D01*
G01X30474Y34558D01*
G01X30487Y34483D01*
G01X30523Y34425D01*
G01X30580Y34388D01*
G01X30653Y34374D01*
G01X30661Y34374D01*
G01X30678Y34375D01*
G01X30686Y34376D01*
G01X30694Y34378D01*
G01X30704Y34381D01*
G01X30713Y34386D01*
G01X30723Y34391D01*
G01X30735Y34399D01*
G01X30748Y34407D01*
G01X30762Y34419D01*
G01X30778Y34432D01*
G01X30795Y34448D01*
G01X30815Y34466D01*
G01X30837Y34487D01*
G01X30862Y34511D01*
G01X30888Y34538D01*
G01X30918Y34569D01*
G01X30950Y34603D01*
G01X30986Y34642D01*
G01X31025Y34684D01*
G01X31068Y34730D01*
G01X31114Y34781D01*
G01X31164Y34836D01*
G01X31219Y34897D01*
G01X31278Y34962D01*
G01X31341Y35032D01*
G01X31409Y35108D01*
G01X31482Y35190D01*
G01X31560Y35277D01*
G01X31643Y35371D01*
G01X31731Y35470D01*
G01X31826Y35576D01*
G01X31926Y35689D01*
G01X32032Y35809D01*
G01X32145Y35935D01*
G01X33275Y37208D01*
G01X33275Y37295D01*
G01X33262Y37371D01*
G01X33226Y37428D01*
G01X33169Y37466D01*
G37*

%LPD*%
G36*
G01X32972Y35923D02*
G01X32924Y35925D01*
G01X32874Y35908D01*
G01X32823Y35873D01*
G01X32792Y35836D01*
G01X32755Y35773D01*
G01X32717Y35695D01*
G01X32681Y35608D01*
G01X32663Y35561D01*
G01X32643Y35511D01*
G01X32620Y35459D01*
G01X32594Y35406D01*
G01X32567Y35350D01*
G01X32537Y35293D01*
G01X32506Y35234D01*
G01X32472Y35172D01*
G01X32437Y35110D01*
G01X32399Y35045D01*
G01X32359Y34979D01*
G01X32317Y34912D01*
G01X32274Y34843D01*
G01X32229Y34773D01*
G01X32181Y34702D01*
G01X32132Y34628D01*
G01X32093Y34569D01*
G01X32054Y34508D01*
G01X32017Y34446D01*
G01X31983Y34385D01*
G01X31952Y34328D01*
G01X31925Y34275D01*
G01X31904Y34229D01*
G01X31890Y34192D01*
G01X31837Y34033D01*
G01X31851Y33785D01*
G01X31855Y33722D01*
G01X31861Y33664D01*
G01X31869Y33610D01*
G01X31879Y33560D01*
G01X31890Y33513D01*
G01X31903Y33469D01*
G01X31919Y33426D01*
G01X31937Y33385D01*
G01X31963Y33336D01*
G01X31994Y33285D01*
G01X32031Y33234D01*
G01X32072Y33183D01*
G01X32116Y33132D01*
G01X32163Y33082D01*
G01X32212Y33035D01*
G01X32263Y32990D01*
G01X32315Y32948D01*
G01X32367Y32911D01*
G01X32418Y32879D01*
G01X32468Y32851D01*
G01X32620Y32777D01*
G01X33259Y32777D01*
G01X33412Y32851D01*
G01X33461Y32878D01*
G01X33512Y32911D01*
G01X33564Y32948D01*
G01X33615Y32989D01*
G01X33666Y33034D01*
G01X33715Y33081D01*
G01X33763Y33131D01*
G01X33808Y33182D01*
G01X33849Y33233D01*
G01X33886Y33285D01*
G01X33918Y33336D01*
G01X33945Y33385D01*
G01X34020Y33537D01*
G01X34020Y34177D01*
G01X33948Y34313D01*
G01X33929Y34347D01*
G01X33903Y34391D01*
G01X33872Y34442D01*
G01X33836Y34500D01*
G01X33797Y34561D01*
G01X33756Y34626D01*
G01X33714Y34691D01*
G01X33672Y34755D01*
G01X33625Y34826D01*
G01X33580Y34894D01*
G01X33538Y34960D01*
G01X33499Y35023D01*
G01X33461Y35084D01*
G01X33427Y35143D01*
G01X33394Y35200D01*
G01X33363Y35255D01*
G01X33334Y35308D01*
G01X33283Y35410D01*
G01X33259Y35459D01*
G01X33238Y35507D01*
G01X33218Y35554D01*
G01X33199Y35601D01*
G01X33183Y35647D01*
G01X33145Y35737D01*
G01X33105Y35811D01*
G01X33063Y35866D01*
G01X33018Y35903D01*
G01X32972Y35923D01*
G37*

%LPC*%
G36*
G01X32681Y34060D02*
G01X32666Y34070D01*
G01X32652Y34061D01*
G01X32631Y34037D01*
G01X32607Y34000D01*
G01X32582Y33956D01*
G01X32553Y33901D01*
G01X32520Y33838D01*
G01X32486Y33773D01*
G01X32455Y33716D01*
G01X32389Y33589D01*
G01X32433Y33484D01*
G01X32458Y33435D01*
G01X32489Y33396D01*
G01X32527Y33367D01*
G01X32571Y33345D01*
G01X32624Y33332D01*
G01X32674Y33328D01*
G01X32722Y33333D01*
G01X32768Y33347D01*
G01X32808Y33369D01*
G01X32844Y33400D01*
G01X32875Y33438D01*
G01X32899Y33484D01*
G01X32943Y33589D01*
G01X32886Y33700D01*
G01X32858Y33754D01*
G01X32825Y33817D01*
G01X32791Y33882D01*
G01X32760Y33941D01*
G01X32731Y33991D01*
G01X32704Y34032D01*
G01X32681Y34060D01*
G37*

%LPD*%
G54D12*
G01X24410Y34885D02*
G01X24410Y32285D01*
G01X22610Y32285D02*
G01X22799Y32285D01*
G01X22610Y34885D02*
G01X22610Y32285D01*
G01X22790Y34885D02*
G01X22610Y34885D01*
G01X24210Y32285D02*
G01X24410Y32285D01*
G01X24249Y34885D02*
G01X24410Y34885D01*
G54D51*
G01X14605Y13456D02*
G01X11405Y13456D01*
G01X14605Y16536D02*
G01X11405Y16536D01*
G01X13415Y15496D02*
G01X13415Y14496D01*
G01X13415Y14995D02*
G01X12575Y14995D01*
G01X36604Y13456D02*
G01X33404Y13456D01*
G01X36604Y16536D02*
G01X33404Y16536D01*
G01X35414Y15496D02*
G01X35414Y14496D01*
G01X35414Y14995D02*
G01X34574Y14995D01*
G01X58598Y13456D02*
G01X55398Y13456D01*
G01X58598Y16536D02*
G01X55398Y16536D01*
G01X57408Y15496D02*
G01X57408Y14496D01*
G01X57408Y14995D02*
G01X56568Y14995D01*
G54D52*
G01X22790Y34885D02*
G01X22629Y34885D01*
G01X24410Y34885D02*
G01X24249Y34885D01*
G01X24410Y32285D02*
G01X24210Y32285D01*
G01X22610Y32285D02*
G01X22799Y32285D01*
G01X22610Y32285D02*
G01X22610Y34885D01*
G01X22610Y34885D01*
G01X24410Y32285D02*
G01X24410Y34885D01*
G54D53*
G01X22200Y58850D02*
G01X24800Y58850D01*
G01X22200Y56250D02*
G01X24800Y56250D01*
G54D26*
G75*
G01X21988Y58810D02*
G03X21988Y58808I-127J-1D01*
G01*
G54D11*
G75*
G01X26000Y15000D02*
G03X44000Y15000I9000J0D01*
G01*
G75*
G01X48000Y15000D02*
G03X66000Y15000I9000J0D01*
G01*
G75*
G01X4000Y15000D02*
G03X22000Y15000I9000J0D01*
G01*
G54D12*
G75*
G01X24100Y35535D02*
G03X24100Y35535I-40J0D01*
G01*
G54D11*
G75*
G01X66500Y15000D02*
G03X66500Y15000I-9500J0D01*
G01*
G75*
G01X22500Y15000D02*
G03X22500Y15000I-9500J0D01*
G01*
G75*
G01X44500Y15000D02*
G03X44500Y15000I-9500J0D01*
G01*

%LPD*%
G36*
G01X13499Y18499D02*
G01X12999Y19249D01*
G01X12500Y18499D01*
G01X13499Y18499D01*
G37*

%LPD*%
G36*
G01X35500Y18500D02*
G01X35000Y19249D01*
G01X34500Y18500D01*
G01X35000Y18499D01*
G01X35500Y18500D01*
G37*

%LPD*%
G36*
G01X57499Y11550D02*
G01X56499Y11550D01*
G01X57000Y10800D01*
G01X57499Y11550D01*
G37*
M00*
M02*
